<svg width="38" height="38" viewBox="0 0 38 38" fill="none" xmlns="http://www.w3.org/2000/svg">
<path d="M37.7693 18.9611C36.5491 17.7323 35.4147 15.5529 34.0705 15.1209C33.928 15.0673 33.7813 15.0256 33.632 14.9961C33.7472 14.8981 33.8555 14.7923 33.9562 14.6793C34.9094 13.6136 34.795 11.1559 35.2336 9.48538C33.5748 9.03415 31.4967 7.71887 30.1049 8.00689C29.9591 8.03404 29.8157 8.07255 29.6759 8.12209C29.7251 7.98128 29.7633 7.83684 29.7903 7.69007C30.0763 6.28838 28.7607 4.21466 28.3127 2.54415C26.6444 2.98578 24.1945 2.88018 23.1363 3.83064C23.0215 3.92892 22.9132 4.03475 22.8122 4.14745C22.7896 3.99971 22.7513 3.85486 22.6978 3.71543C22.2498 2.36174 20.0763 1.21927 18.8846 0C17.6644 1.21927 15.4909 2.36174 15.0715 3.71543C15.0223 3.85623 14.9841 4.00067 14.9571 4.14745C14.8561 4.03475 14.7479 3.92892 14.633 3.83064C13.5748 2.87058 11.1249 2.98578 9.45662 2.54415C9.00858 4.21466 7.69304 6.28838 7.97903 7.69007C8.00599 7.83684 8.04423 7.98128 8.09342 8.12209C7.95361 8.07255 7.81018 8.03404 7.66444 8.00689C6.27264 7.71887 4.19447 9.03415 2.53574 9.48538C2.97426 11.1559 2.87893 13.6136 3.81316 14.6793C3.91384 14.7923 4.02213 14.8981 4.13727 14.9961C3.98796 15.0256 3.8413 15.0673 3.69876 15.1209C2.35462 15.5625 1.22021 17.7419 0 18.9611C1.22021 20.19 2.35462 22.3693 3.69876 22.8014L4.13727 22.9166L3.81316 23.2334C2.85987 24.2991 2.97426 26.7568 2.53574 28.4273C4.19447 28.8881 6.27264 30.2034 7.66444 29.9154C7.81697 29.9154 7.95996 29.8386 8.09342 29.8002C8.04423 29.941 8.00599 30.0855 7.97903 30.2322C7.69304 31.6243 9.00858 33.7076 9.45662 35.3685C11.1249 34.9365 13.5748 35.0325 14.633 34.0917C14.7503 33.9927 14.8588 33.8834 14.9571 33.7652C14.983 33.9154 15.0212 34.0631 15.0715 34.2069C15.5195 35.5605 17.693 36.6934 18.8846 37.9127C20.1049 36.6934 22.2784 35.5605 22.6978 34.2069C22.7525 34.0645 22.7909 33.9164 22.8122 33.7652C22.9105 33.8834 23.019 33.9927 23.1363 34.0917C24.1945 35.0517 26.6444 34.9365 28.3127 35.3685C28.7607 33.7076 30.0763 31.6243 29.7903 30.2322C29.7633 30.0855 29.7251 29.941 29.6759 29.8002C29.8093 29.8002 29.9523 29.8866 30.1049 29.9154C31.4967 30.2034 33.5748 28.8881 35.2336 28.4273C34.795 26.7568 34.8904 24.2991 33.9562 23.2334L33.632 22.9166L34.0705 22.8014C35.4147 22.3501 36.5491 20.1708 37.7693 18.9611ZM29.5329 28.8593C28.4747 28.2833 27.4452 26.5264 26.9113 25.0191L30.1049 25.4127L28.1983 22.907C29.7426 22.6382 31.7064 22.667 32.7073 23.2814C33.0563 23.5603 33.3336 23.9196 33.5161 24.3289C33.6986 24.7382 33.7808 25.1856 33.756 25.6335C33.7507 26.3496 33.8404 27.0632 34.0229 27.7553C33.3348 27.9414 32.6744 28.2191 32.0591 28.5809C31.6836 28.8233 31.257 28.9738 30.8134 29.0205C30.3697 29.0671 29.9215 29.0087 29.5043 28.8497M21.4109 11.4055C21.3667 11.342 21.3119 11.2867 21.2488 11.2423L24.8141 8.54452L24.4709 11.4247V11.7415L24.4137 12.1639C24.0903 12.1691 23.7693 12.2209 23.4604 12.3175C23.1547 12.4379 22.8865 12.6385 22.6837 12.8985C22.4808 13.1585 22.3508 13.4684 22.307 13.796C22.307 13.94 22.2498 14.1033 22.2307 14.2665C21.4933 13.7332 20.6404 13.3844 19.7426 13.2488C19.8475 12.9992 19.9523 12.788 20.0477 12.6056C20.1217 12.4389 20.2468 12.3005 20.4046 12.2107C20.5625 12.1208 20.7447 12.0843 20.9247 12.1063C21.1058 12.1063 21.3441 12.1063 21.4299 11.8663C21.4519 11.7987 21.4573 11.7267 21.4457 11.6565C21.4341 11.5863 21.4058 11.5199 21.3632 11.4631M17.8837 11.0023C17.7791 10.9928 17.6738 10.9928 17.5691 11.0023C17.4233 10.9876 17.2764 10.9876 17.1306 11.0023L17.6358 9.08215V8.94774L18.8275 4.45467L20.5624 10.9639C20.4134 10.9492 20.2634 10.9492 20.1144 10.9639C20.0066 10.954 19.8981 10.954 19.7903 10.9639C19.823 10.6129 19.7647 10.2594 19.6209 9.93792C19.4772 9.61647 19.2531 9.33813 18.9704 9.13015L18.8275 9.03415L18.6845 9.13015C18.3987 9.33568 18.1716 9.61331 18.026 9.93518C17.8804 10.257 17.8215 10.6118 17.8551 10.9639M21.0581 11.6167C21.0657 11.6316 21.0696 11.648 21.0696 11.6647C21.0696 11.6814 21.0657 11.6978 21.0581 11.7127H20.8675C20.6269 11.6881 20.3847 11.7396 20.1746 11.86C19.9644 11.9805 19.7968 12.1639 19.6949 12.3847C19.5805 12.6056 19.4662 12.8456 19.3327 13.1432C18.9742 13.1144 18.614 13.1144 18.2555 13.1432C18.1316 12.8456 18.0172 12.6056 17.9028 12.3847C17.7998 12.1648 17.6319 11.9822 17.4221 11.8619C17.2122 11.7416 16.9706 11.6895 16.7302 11.7127H16.5396C16.5333 11.6975 16.53 11.6812 16.53 11.6647C16.53 11.6482 16.5333 11.6319 16.5396 11.6167C16.8013 11.3833 17.1436 11.2626 17.4928 11.2807C17.7214 11.2755 17.9476 11.3283 18.1506 11.4343L18.3889 11.5591L18.265 11.3191C18.1184 10.9882 18.0895 10.6166 18.1833 10.2668C18.277 9.91702 18.4877 9.61051 18.7798 9.39897C19.0717 9.61067 19.2816 9.91779 19.3737 10.2679C19.4658 10.6181 19.4345 10.9896 19.285 11.3191L19.1706 11.5591L19.5043 11.4631C19.7073 11.3571 19.9335 11.3043 20.1621 11.3095C20.3352 11.2979 20.509 11.3216 20.6728 11.3794C20.8366 11.4371 20.9872 11.5276 21.1153 11.6455M16.3489 11.8567C16.4347 12.0871 16.6826 12.0967 16.8541 12.0967C17.0341 12.0747 17.2164 12.1112 17.3742 12.2011C17.532 12.2909 17.6571 12.4293 17.7312 12.596C17.8458 12.8039 17.9477 13.0187 18.0362 13.2392C17.1422 13.378 16.2932 13.7266 15.5577 14.2569C15.5577 14.0937 15.5577 13.9304 15.4814 13.7864C15.4387 13.457 15.308 13.1454 15.1031 12.885C14.8983 12.6246 14.6271 12.4252 14.3184 12.3079C14.0099 12.2095 13.6887 12.1578 13.3651 12.1543L12.9361 8.56372L14.8427 10.023H14.8999L16.4728 11.2135C16.4086 11.2635 16.3509 11.3216 16.3012 11.3863C16.2587 11.4431 16.2304 11.5094 16.2188 11.5797C16.2071 11.6499 16.2125 11.7219 16.2345 11.7895M16.3108 26.5072L16.387 26.5936L12.8694 29.2434L13.2793 25.816H13.2221C13.5649 25.8195 13.9061 25.7677 14.2326 25.6623C14.5384 25.5407 14.806 25.3383 15.0073 25.0764C15.2086 24.8146 15.3362 24.5029 15.3765 24.1743C15.4128 24.0227 15.4383 23.8687 15.4528 23.7134C16.1944 24.2217 17.0427 24.5503 17.9314 24.6735C17.8265 24.9327 17.7216 25.1343 17.6263 25.3263C17.5511 25.4921 17.4257 25.6296 17.2682 25.7192C17.1107 25.8089 16.9291 25.8461 16.7493 25.8256C16.5682 25.8256 16.3298 25.8256 16.244 26.0656C16.2221 26.1332 16.2167 26.2052 16.2283 26.2754C16.2399 26.3456 16.2682 26.412 16.3108 26.4688M19.7903 26.92C19.8949 26.9295 20.0002 26.9295 20.1049 26.92C20.2379 26.9342 20.3722 26.9342 20.5052 26.92L20.1525 28.2737L19.9905 28.8977L18.8275 33.2756L17.6644 28.8977L17.4833 28.1873L17.1401 26.92C17.2732 26.9342 17.4074 26.9342 17.5405 26.92C17.6484 26.9293 17.7568 26.9293 17.8646 26.92C17.8319 27.271 17.8902 27.6245 18.034 27.946C18.1777 28.2674 18.4018 28.5458 18.6845 28.7537L18.8275 28.8593L18.98 28.7537C19.2626 28.5458 19.4868 28.2674 19.6305 27.946C19.7742 27.6245 19.8325 27.271 19.7998 26.92M16.5968 26.2672C16.5968 26.2672 16.5968 26.2 16.5968 26.1808C16.6597 26.1686 16.7244 26.1686 16.7874 26.1808C17.0289 26.2032 17.2713 26.1497 17.4812 26.0276C17.6912 25.9055 17.8585 25.7209 17.96 25.4991C18.0901 25.2524 18.2078 24.9993 18.3127 24.7407C18.6739 24.7791 19.0382 24.7791 19.3994 24.7407C19.5234 25.0383 19.6378 25.2783 19.7521 25.4991C19.8547 25.72 20.0222 25.9039 20.2319 26.0258C20.4416 26.1477 20.6835 26.2018 20.9247 26.1808H21.1153C21.1216 26.196 21.1249 26.2123 21.1249 26.2288C21.1249 26.2453 21.1216 26.2616 21.1153 26.2768C20.987 26.395 20.8367 26.4864 20.6731 26.5457C20.5094 26.6051 20.3358 26.6311 20.1621 26.6224C19.934 26.6227 19.709 26.5701 19.5043 26.4688L19.266 26.344L19.3899 26.5744C19.5347 26.9055 19.5627 27.2766 19.469 27.626C19.3754 27.9753 19.1658 28.2818 18.8751 28.4945C18.5872 28.2795 18.3798 27.973 18.2864 27.6246C18.193 27.2761 18.219 26.9061 18.3603 26.5744L18.4843 26.344L18.2555 26.4688C18.0472 26.5693 17.8192 26.6218 17.5882 26.6224C17.4143 26.6328 17.2402 26.6075 17.0763 26.548C16.9125 26.4886 16.7623 26.3964 16.6349 26.2768M21.4013 26.0752C21.3155 25.8352 21.0677 25.8352 20.8961 25.8352C20.7163 25.8557 20.5347 25.8185 20.3772 25.7288C20.2196 25.6392 20.0943 25.5016 20.0191 25.3359C19.9046 25.1246 19.8027 24.9066 19.714 24.6831C20.5993 24.5581 21.4441 24.2296 22.183 23.723C22.183 23.8862 22.2307 24.0399 22.2593 24.1935C22.3095 24.5188 22.442 24.8257 22.644 25.0846C22.846 25.3435 23.1108 25.5458 23.4128 25.672C23.7211 25.7698 24.0428 25.8183 24.3661 25.816L24.7855 29.253L21.2679 26.6032L21.3346 26.5168C21.3803 26.4617 21.4113 26.3957 21.4246 26.3251C21.438 26.2546 21.4332 26.1818 21.4109 26.1136M26.225 19.3932L26.3489 19.6236C26.465 19.8473 26.5256 20.096 26.5256 20.3484C26.5256 20.6009 26.465 20.8496 26.3489 21.0733C26.2631 21.2173 26.1773 21.2653 26.1296 21.2653C26.1233 21.2014 26.1233 21.1371 26.1296 21.0733C26.1505 20.8303 26.0968 20.5868 25.9757 20.3756C25.8547 20.1644 25.6721 19.9957 25.4528 19.8924C25.2336 19.7772 24.9857 19.6716 24.6902 19.5372C24.6999 19.3581 24.6999 19.1786 24.6902 18.9995C24.6997 18.8173 24.6997 18.6346 24.6902 18.4523C24.9857 18.3275 25.2336 18.2123 25.4528 18.0971C25.6722 17.9966 25.8553 17.8299 25.9765 17.62C26.0978 17.4102 26.1513 17.1676 26.1296 16.9258C26.1233 16.862 26.1233 16.7977 26.1296 16.7338C26.1296 16.7338 26.2631 16.7914 26.3489 16.9354C26.465 17.1574 26.5256 17.4046 26.5256 17.6555C26.5256 17.9064 26.465 18.1535 26.3489 18.3755L26.225 18.6155L26.4633 18.4907C26.6409 18.4014 26.8368 18.3554 27.0353 18.3563C27.286 18.3613 27.5324 18.4225 27.7567 18.5354C27.9809 18.6483 28.1774 18.8102 28.3317 19.0091C28.1751 19.2049 27.9779 19.3638 27.754 19.4749C27.5301 19.586 27.2848 19.6466 27.0353 19.6524C26.8363 19.658 26.6392 19.6117 26.4633 19.518L26.225 19.3932ZM27.3403 22.5038V22.5518L29.1039 24.9135L26.7016 24.6255L26.0248 24.5391H25.6244C25.6161 24.2419 25.5647 23.9476 25.4719 23.6654C25.3519 23.3569 25.1512 23.0868 24.891 22.8839C24.6308 22.6811 24.3209 22.553 23.9943 22.5134C23.8438 22.4769 23.6908 22.4512 23.5367 22.4366C24.0592 21.6936 24.405 20.8395 24.5472 19.9404C24.7661 20.0296 24.9794 20.1322 25.1859 20.2476C25.3514 20.3222 25.4888 20.4482 25.578 20.6071C25.6672 20.7661 25.7035 20.9496 25.6816 21.1309C25.6816 21.3037 25.6816 21.5533 25.9199 21.6301H26.0534C26.1346 21.6257 26.2138 21.6026 26.2848 21.5627C26.3559 21.5228 26.4169 21.467 26.4633 21.3997L27.3403 22.5038ZM24.0705 18.5003C24.0801 18.6666 24.0801 18.8333 24.0705 18.9995C24.069 20.3167 23.5797 21.5859 22.6981 22.5589C21.8166 23.5319 20.6064 24.1388 19.3041 24.2607C19.1358 24.2702 18.9671 24.2702 18.7989 24.2607C18.6338 24.2704 18.4682 24.2704 18.3031 24.2607C17.0001 24.1409 15.7886 23.5347 14.9066 22.5612C14.0247 21.5877 13.536 20.3173 13.5367 18.9995C13.5272 18.8333 13.5272 18.6666 13.5367 18.5003C13.6581 17.1855 14.2633 15.964 15.2335 15.0757C16.2037 14.1875 17.4686 13.6968 18.7798 13.7H19.2755C20.5022 13.8118 21.6511 14.3535 22.5221 15.2306C23.3931 16.1078 23.9309 17.2649 24.0419 18.5003M22.4976 14.4873C22.5061 14.2738 22.5349 14.0616 22.5834 13.8536C22.6149 13.5804 22.7206 13.3212 22.8887 13.1044C23.0569 12.8876 23.2811 12.7217 23.5367 12.6248C24.0471 12.4728 24.5858 12.4432 25.1096 12.5384H25.2622C25.2586 12.5863 25.2586 12.6344 25.2622 12.6824C25.372 13.1997 25.3589 13.7359 25.224 14.2473C25.128 14.5066 24.962 14.7339 24.7448 14.9035C24.5276 15.0731 24.2676 15.1783 23.9943 15.2073C23.7845 15.2562 23.5707 15.2851 23.3556 15.2937C23.1098 14.9983 22.8387 14.7252 22.5453 14.4777M14.3375 15.2937C14.1223 15.2851 13.9085 15.2562 13.6988 15.2073C13.4264 15.1752 13.168 15.0688 12.9513 14.8996C12.7345 14.7304 12.5678 14.5049 12.469 14.2473C12.3199 13.7327 12.2938 13.1899 12.3928 12.6632C12.3928 12.6056 12.3928 12.5576 12.3928 12.5192H12.5453C13.0646 12.4204 13.5996 12.4433 14.1087 12.5864C14.3645 12.6859 14.5884 12.8538 14.7564 13.072C14.9244 13.2903 15.03 13.5506 15.062 13.8248C15.1111 14.0327 15.1399 14.2449 15.1478 14.4585C14.8544 14.706 14.5832 14.9791 14.3375 15.2745M27.407 27.5825C26.5986 27.1119 25.7461 26.7228 24.8618 26.4208L24.795 25.8256H25.1478C25.227 25.8181 25.3068 25.8181 25.3861 25.8256C25.4364 25.8248 25.4843 25.8041 25.5195 25.768C25.5385 25.7496 25.5527 25.727 25.561 25.7019C25.5693 25.6768 25.5714 25.65 25.5672 25.6239C25.561 25.5441 25.561 25.4638 25.5672 25.3839C25.5745 25.24 25.5745 25.0958 25.5672 24.9519L26.1392 25.0191C26.4447 25.9336 26.8407 26.8149 27.3213 27.6497M23.4414 25.4319C22.6311 25.1727 22.4881 24.1647 22.4309 23.5118C22.7243 23.2643 22.9954 22.9912 23.2412 22.6958C23.4604 22.6958 23.6797 22.6958 23.8799 22.7822C24.1509 22.8149 24.4078 22.9217 24.6228 23.0909C24.8379 23.2601 25.003 23.4854 25.1001 23.7422C25.2513 24.2562 25.2807 24.7988 25.1859 25.3263C25.1823 25.3743 25.1823 25.4224 25.1859 25.4703H25.0334C24.5104 25.57 23.9714 25.5437 23.4604 25.3935M12.4976 25.4799H12.3451C12.3492 25.4288 12.3492 25.3775 12.3451 25.3263C12.2462 24.8028 12.2723 24.2632 12.4214 23.7518C12.5176 23.4944 12.6824 23.2686 12.8976 23.0992C13.1128 22.9299 13.3702 22.8235 13.6416 22.7918C13.8513 22.7429 14.0651 22.714 14.2803 22.7054C14.5262 22.9978 14.7973 23.2677 15.0906 23.5118C15.0804 23.7278 15.0549 23.9428 15.0143 24.1551C14.9818 24.428 14.8757 24.6867 14.7077 24.9033C14.5397 25.1199 14.3161 25.2861 14.061 25.3839C13.5506 25.5359 13.0119 25.5655 12.4881 25.4703M12.7931 25.8448L12.7169 26.44C11.8309 26.7378 10.978 27.1271 10.1716 27.6017C10.6504 26.7694 11.0463 25.8914 11.3537 24.9807L11.9352 24.9039C11.9279 25.051 11.9279 25.1984 11.9352 25.3455C11.9427 25.4286 11.9427 25.5121 11.9352 25.5951C11.9399 25.6448 11.9599 25.6918 11.9924 25.7296C12.0146 25.7406 12.0391 25.7463 12.0639 25.7463C12.0887 25.7463 12.1131 25.7406 12.1354 25.7296H12.3737H12.7264M10.8198 24.5007L8.42707 24.7887L9.82841 22.8686L10.2288 22.3309L11.0581 21.2173C11.106 21.2823 11.1676 21.3359 11.2385 21.3741C11.3094 21.4122 11.3878 21.4341 11.4681 21.4381H11.6015C11.8303 21.3517 11.8398 21.1117 11.8398 20.9293C11.8179 20.748 11.8542 20.5645 11.9434 20.4055C12.0327 20.2466 12.1701 20.1206 12.3356 20.046L12.9743 19.7388C13.1148 20.6384 13.4607 21.4928 13.9847 22.2349L13.5272 22.3118C13.2001 22.3542 12.8904 22.4845 12.6305 22.6889C12.3705 22.8932 12.1699 23.1642 12.0496 23.4734C11.9641 23.7538 11.916 24.0443 11.9066 24.3375H11.4871L10.8198 24.5007ZM12.9075 18.8747C12.898 19.057 12.898 19.2397 12.9075 19.422C12.612 19.5468 12.3642 19.662 12.1449 19.7772C11.9247 19.8786 11.7417 20.0472 11.6219 20.2591C11.5022 20.4711 11.4517 20.7156 11.4776 20.9581C11.4776 21.0253 11.4776 21.1309 11.4776 21.1501C11.4776 21.1501 11.3441 21.1021 11.2583 20.9581C11.1422 20.7343 11.0816 20.4857 11.0816 20.2332C11.0816 19.9808 11.1422 19.7321 11.2583 19.5084L11.3823 19.2684L11.1439 19.3932C10.9664 19.4824 10.7704 19.5285 10.572 19.5276C10.3213 19.5226 10.0748 19.4614 9.85058 19.3485C9.62632 19.2356 9.42986 19.0737 9.2755 18.8747C9.43213 18.679 9.6293 18.52 9.85321 18.409C10.0771 18.2979 10.3224 18.2373 10.572 18.2315C10.7704 18.2306 10.9664 18.2766 11.1439 18.3659L11.3823 18.4907L11.2583 18.2507C11.1422 18.027 11.0816 17.7783 11.0816 17.5259C11.0816 17.2734 11.1422 17.0247 11.2583 16.801C11.3441 16.657 11.4299 16.609 11.4776 16.609C11.4776 16.609 11.4776 16.7338 11.4776 16.801C11.4517 17.0435 11.5022 17.288 11.6219 17.4999C11.7417 17.7119 11.9247 17.8805 12.1449 17.9819C12.3642 18.0971 12.612 18.2123 12.9075 18.3371C12.8983 18.5162 12.8983 18.6957 12.9075 18.8747ZM9.76168 22.2925C8.85376 22.116 7.93135 22.026 7.00667 22.0237C7.76465 21.5912 8.47971 21.0864 9.14204 20.5164L10.7626 20.9485L9.76168 22.2925ZM4.38513 18.7979L8.70352 17.6459L9.22784 17.5019L10.9247 17.2234C10.8666 17.4923 10.8666 17.7706 10.9247 18.0395H10.7054C10.3916 18.0465 10.0834 18.1253 9.80427 18.27C9.52514 18.4147 9.28238 18.6215 9.09438 18.8747L8.98951 19.0188L9.09438 19.1724C9.28238 19.4256 9.52514 19.6324 9.80427 19.7771C10.0834 19.9218 10.3916 20.0006 10.7054 20.0076H10.9247C10.8865 20.2235 10.8865 20.4445 10.9247 20.6604L9.71402 20.334L9.43756 20.2572L4.38513 18.7979ZM7.00667 15.7258C7.96656 15.7244 8.92415 15.6311 9.86654 15.4473L10.9247 16.7434L9.17064 17.2138C8.5477 16.6854 7.87753 16.2162 7.16873 15.8122M8.58913 12.932L12.0496 13.3544C12.0341 13.6881 12.0727 14.0221 12.164 14.3433C12.2848 14.6513 12.4858 14.9208 12.7458 15.1235C13.0058 15.3262 13.3152 15.4547 13.6416 15.4953C13.7925 15.5278 13.9453 15.5502 14.0991 15.5625C13.5987 16.3116 13.2728 17.1649 13.1459 18.0587L12.5072 17.7515C12.3417 17.6769 12.2042 17.5509 12.115 17.392C12.0258 17.233 11.9895 17.0495 12.0114 16.8682C12.0114 16.6858 12.0114 16.4458 11.7731 16.3594H11.6397C11.5066 16.3618 11.3798 16.417 11.2869 16.513L10.5052 15.4761L10.3146 15.2169L8.58913 12.932ZM11.449 12.8552C11.1502 11.9996 10.7737 11.1737 10.3241 10.3878C11.1202 10.8488 11.9601 11.2284 12.8313 11.5207L12.9075 12.1255H12.5167C12.4374 12.133 12.3576 12.133 12.2784 12.1255C12.2281 12.1263 12.1801 12.147 12.1449 12.1831C12.1303 12.23 12.1303 12.2803 12.1449 12.3271C12.1523 12.407 12.1523 12.4873 12.1449 12.5672C12.1449 12.644 12.1449 12.7304 12.1449 12.8264L11.449 12.8552ZM24.919 11.5591C25.8097 11.254 26.6686 10.8617 27.4833 10.3878C27.0338 11.1737 26.6572 11.9996 26.3584 12.8552L25.7293 12.932C25.7293 12.836 25.7293 12.7496 25.7293 12.6632C25.7212 12.5802 25.7212 12.4966 25.7293 12.4135C25.7285 12.3629 25.708 12.3146 25.6721 12.2791C25.6255 12.2644 25.5756 12.2644 25.5291 12.2791H25.2908H24.9094L24.919 11.5591ZM26.8255 13.22L29.1802 12.932L27.6835 14.9385L27.2736 15.4857L26.5014 16.5226C26.4562 16.4733 26.4018 16.4335 26.3413 16.4055C26.2807 16.3775 26.2153 16.3618 26.1487 16.3594H26.0153C25.7865 16.4458 25.7769 16.6954 25.7769 16.8682C25.7989 17.0495 25.7625 17.233 25.6733 17.392C25.5841 17.5509 25.4467 17.6769 25.2812 17.7515C25.0747 17.8669 24.8614 17.9695 24.6425 18.0587C24.5154 17.1709 24.1894 16.3239 23.6892 15.5817L24.1563 15.5049C24.4687 15.4501 24.7614 15.3141 25.0055 15.1103C25.2496 14.9066 25.4367 14.6422 25.5481 14.3433C25.6593 14.0094 25.7109 13.6584 25.7007 13.3064L26.1487 13.2584L26.8255 13.22ZM27.7788 15.5721C28.7212 15.7559 29.6788 15.8492 30.6387 15.8506C29.9147 16.2431 29.2285 16.7027 28.5891 17.2234L26.8351 16.753L27.7788 15.5721ZM28.9323 17.7611L33.2507 18.9227L26.8923 20.6316C26.9304 20.4125 26.9304 20.1884 26.8923 19.9692H27.1115C27.4254 19.9622 27.7336 19.8834 28.0127 19.7387C28.2918 19.594 28.5346 19.3872 28.7226 19.134L28.8275 18.9899L28.7226 18.8459C28.5366 18.5899 28.2945 18.3805 28.0151 18.234C27.7357 18.0874 27.4265 18.0077 27.1115 18.0011H26.8923C26.9494 17.7289 26.9494 17.4476 26.8923 17.1754L28.265 17.5499L28.9323 17.7611ZM28.4938 20.6412C29.1545 21.2134 29.8697 21.7183 30.6292 22.1485C29.7076 22.1505 28.7883 22.2405 27.8837 22.4174L26.8732 21.0733L28.4938 20.6412ZM22.8503 28.3217L25.3956 30.2418L25.0238 27.112C26.4919 27.6497 28.1983 28.6673 28.7703 29.7042C28.9281 30.1243 28.9861 30.5758 28.9398 31.0226C28.8934 31.4693 28.744 31.8989 28.5033 32.2771C28.1454 32.8783 27.8666 33.5237 27.674 34.1973C26.9836 34.0129 26.2719 33.9225 25.5577 33.9284C25.1121 33.9488 24.668 33.8639 24.2608 33.6805C23.8536 33.4971 23.4946 33.2204 23.2126 32.8724C22.5929 31.8547 22.5739 29.829 22.8503 28.2737M22.326 27.8705C22.1322 28.8179 22.0396 29.7834 22.0496 30.7507C21.629 30.0066 21.1373 29.3056 20.5815 28.6577L21.0391 26.9296L22.326 27.8705ZM15.653 33.17C15.8276 31.745 16.4257 30.4064 17.3689 29.3298L18.8561 34.9557L20.3432 29.3298C21.2864 30.4064 21.8845 31.745 22.0591 33.17C21.9932 33.615 21.822 34.0374 21.5598 34.4017C21.2977 34.766 20.9523 35.0614 20.5529 35.2629C19.9343 35.6158 19.3639 36.0483 18.8561 36.5494C18.3482 36.0483 17.7778 35.6158 17.1592 35.2629C16.7598 35.0614 16.4144 34.766 16.1523 34.4017C15.8901 34.0374 15.7189 33.615 15.653 33.17ZM15.4337 27.8801L16.7207 26.92L17.1783 28.6385C16.6224 29.2864 16.1307 29.9874 15.7102 30.7315C15.7212 29.7642 15.6285 28.7985 15.4337 27.8513M9.01811 29.7042C9.59009 28.6673 11.2965 27.6497 12.7741 27.112L12.4023 30.2418L14.938 28.3217C15.2145 29.8866 15.1954 31.9027 14.5758 32.9204C14.2938 33.2684 13.9348 33.5451 13.5276 33.7285C13.1204 33.9119 12.6763 33.9968 12.2307 33.9764C11.5165 33.9705 10.8047 34.0609 10.1144 34.2453C9.92177 33.5717 9.64297 32.9263 9.28503 32.3252C9.03672 31.9412 8.88297 31.5031 8.83655 31.0472C8.79012 30.5914 8.85237 30.1309 9.01811 29.7042ZM5.00477 23.3294C5.95806 22.7054 7.97902 22.6862 9.51382 22.955L7.60724 25.4607L10.7912 25.0671C10.2574 26.5648 9.22784 28.3217 8.16969 28.9073C7.75252 29.0663 7.30422 29.1247 6.86062 29.0781C6.41702 29.0314 5.99041 28.8809 5.61487 28.6385C4.99962 28.2767 4.33921 27.999 3.6511 27.8129C3.83354 27.1208 3.92331 26.4072 3.91802 25.6912C3.89932 25.244 3.98436 24.7986 4.16638 24.3903C4.34841 23.982 4.6224 23.6221 4.96663 23.339M4.67112 15.793C6.05197 15.9639 7.35196 16.5417 8.40801 17.4539L2.8694 18.9323L8.58913 20.4588C7.5004 21.4253 6.14888 22.0406 4.70925 22.2253C4.26866 22.1555 3.8504 21.9828 3.4879 21.721C3.1254 21.4593 2.82872 21.1158 2.62154 20.7181C2.27355 20.0934 1.84391 19.5187 1.34413 19.0091C1.83789 18.4729 2.25791 17.8723 2.59295 17.2234C2.79898 16.8239 3.09517 16.4785 3.45774 16.215C3.8203 15.9516 4.23915 15.7775 4.68064 15.7065M8.17922 9.03415C9.19924 9.58138 10.1907 11.2423 10.7436 12.7016L7.61678 12.3175L9.59008 14.9577C8.02669 15.2361 6.00572 15.2265 4.97617 14.6025C4.63061 14.3184 4.35581 13.9569 4.17374 13.5469C3.99166 13.1368 3.90735 12.6895 3.92755 12.2407C3.93291 11.5278 3.84313 10.8174 3.66063 10.1286C4.34752 9.93455 5.00733 9.65391 5.62441 9.29336C5.99862 9.04751 6.42593 8.89567 6.87048 8.85056C7.31502 8.80546 7.76383 8.86842 8.17922 9.03415ZM14.9285 9.47577L12.3737 7.55566L12.7645 10.8295C11.2869 10.2918 9.56149 9.27416 8.95138 8.2277C8.79059 7.80977 8.73094 7.3593 8.77735 6.91355C8.82377 6.4678 8.97492 6.03958 9.2183 5.66434C9.57866 5.04407 9.85745 4.37926 10.0477 3.68663C10.738 3.87099 11.4498 3.9614 12.164 3.95544C12.6096 3.9351 13.0537 4.02 13.4609 4.20337C13.8681 4.38674 14.227 4.66349 14.5091 5.0115C15.1096 5.97156 15.1478 7.89168 14.8904 9.48538M15.4242 9.879C15.5956 8.98702 15.6786 8.08012 15.6721 7.17163C16.0896 7.89863 16.5714 8.58626 17.1115 9.22616L16.6826 10.8391L15.4242 9.879ZM22.0591 4.74269C21.8982 6.16415 21.3132 7.50311 20.3813 8.58292L18.8561 2.82257L17.3403 8.58292C16.4228 7.49701 15.8485 6.1597 15.6911 4.74269C15.7629 4.29977 15.9365 3.87988 16.198 3.5165C16.4595 3.15313 16.8017 2.85632 17.1973 2.64976C17.8159 2.29685 18.3863 1.8644 18.8942 1.36329C19.402 1.8644 19.9724 2.29685 20.591 2.64976C20.9795 2.86085 21.3142 3.15965 21.5689 3.52274C21.8236 3.88584 21.9914 4.30339 22.0591 4.74269ZM22.2498 9.9174L20.9914 10.8775L20.572 9.26456C21.106 8.62547 21.5844 7.94131 22.0019 7.21964C21.9957 8.1313 22.0787 9.04135 22.2498 9.9366M28.7226 8.2757C28.1506 9.32216 26.4347 10.3398 24.9094 10.8775L25.3098 7.59406L22.7455 9.51418C22.4881 7.96848 22.5262 6.03876 23.1268 5.0403C23.4088 4.69229 23.7678 4.41554 24.175 4.23217C24.5822 4.0488 25.0263 3.9639 25.4719 3.98424C26.1861 3.9902 26.8978 3.89979 27.5882 3.71543C27.7784 4.40806 28.0572 5.07287 28.4175 5.69314C28.6609 6.06838 28.8121 6.4966 28.8585 6.94235C28.9049 7.3881 28.8453 7.83858 28.6845 8.2565M32.6978 14.6409C31.6778 15.2649 29.6473 15.2745 28.0934 14.9961L30.0572 12.3559L26.9304 12.74C27.4833 11.2807 28.4747 9.61978 29.4948 9.07255C29.9101 8.90682 30.3589 8.84386 30.8035 8.88897C31.248 8.93407 31.6754 9.08592 32.0496 9.33176C32.6666 9.69231 33.3265 9.97295 34.0133 10.167C33.8308 10.8558 33.7411 11.5662 33.7464 12.2791C33.7713 12.7285 33.689 13.1773 33.5066 13.5881C33.3242 13.999 33.0469 14.3599 32.6978 14.6409ZM35.081 20.67C34.8739 21.0678 34.5772 21.4113 34.2147 21.673C33.8522 21.9348 33.4339 22.1075 32.9933 22.1773C31.5537 21.9926 30.2022 21.3773 29.1134 20.4108L34.8332 18.8843L29.285 17.3963C30.3425 16.488 31.6423 15.9137 33.0219 15.745C33.4615 15.8104 33.8799 15.978 34.244 16.2347C34.608 16.4913 34.9077 16.8298 35.1192 17.2234C35.4695 17.8436 35.8989 18.4149 36.3966 18.9227C35.8968 19.4323 35.4672 20.007 35.1192 20.6316M22.7264 19.4508L22.5167 19.1052C22.3912 19.1636 22.2546 19.1939 22.1163 19.1939C21.978 19.1939 21.8414 19.1636 21.7159 19.1052V16.945C21.7017 16.6734 21.6066 16.4125 21.443 16.1961C21.2794 15.9797 21.0549 15.818 20.7987 15.732C20.5425 15.646 20.2665 15.6397 20.0067 15.7139C19.747 15.7882 19.5154 15.9395 19.3422 16.1482C19.2333 16.013 19.0989 15.9009 18.9466 15.8185C18.7944 15.7361 18.6274 15.6849 18.4554 15.6679C18.2833 15.6509 18.1097 15.6685 17.9445 15.7197C17.7792 15.7708 17.6257 15.8544 17.4928 15.9658C17.4439 16.0022 17.3991 16.0441 17.3594 16.0906V15.7642H16.082V19.1436C15.9552 19.2035 15.8169 19.2346 15.6768 19.2346C15.5368 19.2346 15.3985 19.2035 15.2717 19.1436L15.0715 19.4892C15.2472 19.5902 15.4441 19.648 15.6462 19.658C15.8482 19.668 16.0498 19.6299 16.2345 19.5468C16.8067 19.3165 17.4449 19.3165 18.0172 19.5468C18.2951 19.6619 18.5938 19.7175 18.8942 19.71C19.1947 19.7192 19.4938 19.6636 19.7712 19.5468C20.3434 19.3165 20.9816 19.3165 21.5539 19.5468C21.7402 19.63 21.9433 19.6681 22.1469 19.6581C22.3505 19.6481 22.549 19.5903 22.7264 19.4892M18.2745 19.2012C17.968 19.0834 17.6475 19.0059 17.3213 18.9707V17.0506C17.3391 16.9463 17.3929 16.8517 17.473 16.7833C17.5532 16.7148 17.6547 16.6769 17.7598 16.6762C17.8199 16.6749 17.8796 16.6856 17.9356 16.7076C17.9916 16.7296 18.0428 16.7625 18.0861 16.8044C18.1295 16.8463 18.1643 16.8964 18.1884 16.9518C18.2126 17.0072 18.2256 17.0669 18.2269 17.1274L18.2745 19.2012ZM20.429 18.9611C20.1024 19.0055 19.7823 19.0893 19.4757 19.2108V17.1562C19.4757 17.0289 19.5259 16.9068 19.6153 16.8168C19.7047 16.7268 19.8259 16.6762 19.9523 16.6762C20.0788 16.6762 20.2 16.7268 20.2894 16.8168C20.3788 16.9068 20.429 17.0289 20.429 17.1562V18.9611ZM17.817 21.8413C17.8115 21.8867 17.7946 21.9299 17.7679 21.9668C17.7412 22.0038 17.7056 22.0333 17.6644 22.0525C17.5239 22.1102 17.3665 22.1102 17.2259 22.0525C17.1848 22.0345 17.1495 22.0051 17.1242 21.9677C17.0989 21.9303 17.0846 21.8865 17.0829 21.8413H16.2345C16.2355 22.0253 16.2996 22.2032 16.416 22.345C16.5325 22.4867 16.694 22.5835 16.8732 22.619C17.3632 22.7714 17.8928 22.7266 18.3508 22.4942C18.4418 22.4407 18.5212 22.3696 18.5845 22.2848C18.6478 22.2001 18.6937 22.1035 18.7194 22.0006C18.7452 21.8978 18.7503 21.7908 18.7345 21.686C18.7186 21.5812 18.6822 21.4806 18.6273 21.3901C18.5706 21.3107 18.5032 21.2396 18.4271 21.1789C18.3481 21.1183 18.257 21.0757 18.1601 21.0541C17.9266 20.9805 17.6875 20.9259 17.4452 20.8909C17.3838 20.8826 17.3252 20.86 17.2739 20.8251C17.2226 20.7901 17.1801 20.7436 17.1497 20.6892C17.1322 20.6304 17.136 20.5672 17.1604 20.511C17.1849 20.4547 17.2283 20.409 17.2831 20.382C17.3878 20.3439 17.5025 20.3439 17.6072 20.382C17.6695 20.3905 17.7276 20.4181 17.7736 20.4611C17.8197 20.504 17.8515 20.5602 17.8646 20.622H18.7131C18.7133 20.4653 18.6646 20.3124 18.574 20.1849C18.4834 20.0574 18.3553 19.9619 18.2078 19.9116C17.9626 19.8046 17.6981 19.7494 17.4309 19.7494C17.1636 19.7494 16.8992 19.8046 16.654 19.9116C16.4607 19.9996 16.31 20.1612 16.2349 20.361C16.1598 20.5608 16.1666 20.7825 16.2536 20.9773C16.2803 21.0475 16.319 21.1125 16.368 21.1693C16.5682 21.3424 16.8126 21.4555 17.0734 21.4957H17.2164L17.4833 21.5533C17.553 21.5704 17.6202 21.5962 17.6835 21.6301C17.7209 21.6495 17.7528 21.6782 17.7762 21.7135C17.7995 21.7488 17.8136 21.7895 17.817 21.8317M19.0753 20.9485C19.0301 21.2928 19.0728 21.643 19.1992 21.9661C19.2665 22.1176 19.3638 22.2536 19.4851 22.3658C19.6064 22.4781 19.7492 22.5642 19.9047 22.619C20.0583 22.6791 20.223 22.7051 20.3876 22.6951C20.5521 22.6852 20.7126 22.6396 20.858 22.5614C21.0586 22.4654 21.231 22.3185 21.3581 22.1349C21.4851 21.9514 21.5625 21.7377 21.5825 21.5149H20.7912C20.7564 21.6633 20.6681 21.7933 20.5434 21.8797C20.2955 22.0525 20 21.8797 19.8856 21.5149C19.8362 21.3473 19.8332 21.1693 19.8769 21.0001C19.9205 20.8309 20.0093 20.677 20.1335 20.5548C20.3909 20.3916 20.6768 20.5548 20.7912 20.9293H21.592C21.5905 20.7369 21.5407 20.5481 21.4474 20.3802C21.3541 20.2124 21.2202 20.071 21.0581 19.9692C20.8237 19.8072 20.5407 19.7321 20.2574 19.7566C19.9741 19.7811 19.7079 19.9037 19.5043 20.1036C19.3768 20.2157 19.2732 20.3526 19.1995 20.506C19.1258 20.6594 19.0835 20.8262 19.0753 20.9965" fill="#7A6846"/>
</svg>
