<svg width="36.000000" height="32.000000" viewBox="0 0 36 32" fill="none" xmlns="http://www.w3.org/2000/svg" xmlns:xlink="http://www.w3.org/1999/xlink">
	<desc>
			Created with Pixso.
	</desc>
	<defs/>
	<path id="Vector" d="M33.75 0L2.25 0C1 0 0 1.19 0 2.66L0 29.33C0 30.8 1 32 2.25 32L33.75 32C34.99 32 36 30.8 36 29.33L36 2.66C36 1.19 34.99 0 33.75 0ZM2.25 1.33L33.75 1.33C34.37 1.33 34.87 1.93 34.87 2.66L34.87 4.31L18 19.16L1.12 4.31L1.12 2.66C1.12 1.93 1.62 1.33 2.25 1.33ZM33.75 30.66L2.25 30.66C1.62 30.66 1.12 30.06 1.12 29.33L1.12 27.46L11.57 18.54C11.83 18.32 11.88 17.9 11.7 17.61C11.52 17.31 11.17 17.24 10.92 17.45L1.12 25.81L1.12 5.97L17.66 20.53C17.76 20.62 17.88 20.66 18 20.66C18.11 20.66 18.23 20.62 18.33 20.53L34.87 5.97L34.87 25.81L25.07 17.45C24.82 17.24 24.47 17.31 24.29 17.61C24.11 17.91 24.16 18.32 24.42 18.54L34.87 27.46L34.87 29.33C34.87 30.06 34.37 30.66 33.75 30.66Z" fill="#FFFFFF" fill-opacity="1.000000" fill-rule="nonzero"/>
	<path id="Vector" d="M36 26.44L36 2.66C36 1.19 34.99 0 33.75 0L2.25 0C1 0 0 1.19 0 2.66L0 29.33C0 30.8 1 32 2.25 32L33.75 32C34.99 32 36 30.8 36 29.33L36 26.44ZM34.87 27.79L34.87 27.46L34.5 27.14L24.76 18.83L24.42 18.54C24.16 18.32 24.11 17.91 24.29 17.61C24.47 17.31 24.82 17.24 25.07 17.45L25.7 17.99L33.37 24.53L34.5 25.49L34.87 25.81L34.87 5.97L34.5 6.3L33.37 7.29L18.33 20.53C18.23 20.62 18.11 20.66 18 20.66C17.88 20.66 17.76 20.62 17.66 20.53L2.62 7.29L1.5 6.3L1.12 5.97L1.12 25.81L1.5 25.49L2.62 24.53L10.29 17.99L10.92 17.45C11.17 17.24 11.52 17.31 11.7 17.61C11.88 17.9 11.83 18.32 11.57 18.54L11.23 18.83L1.5 27.14L1.12 27.46L1.12 29.33C1.12 30.06 1.62 30.66 2.25 30.66L33.75 30.66C34.37 30.66 34.87 30.06 34.87 29.33L34.87 27.79ZM1.5 4.64L17.8 19L17.99 19.16L18 19.16L18 19.16L18.19 19L34.5 4.64L34.87 4.31L34.87 2.66C34.87 1.93 34.37 1.33 33.75 1.33L2.25 1.33C1.62 1.33 1.12 1.93 1.12 2.66L1.12 4.31L1.5 4.64Z" fill="#FFFFFF" fill-opacity="1.000000" fill-rule="evenodd"/>
</svg>
