<svg width="40.000000" height="39.000000" viewBox="0 0 40 39" fill="none" xmlns="http://www.w3.org/2000/svg" xmlns:xlink="http://www.w3.org/1999/xlink">
	<desc>
			Created with Pixso.
	</desc>
	<defs/>
	<path id="icons8-телеграмма-app-50 2 (Traced)" d="M17.52 13.44C11.52 15.93 6.3 18.26 5.94 18.62C4.96 19.56 6.22 20.82 8.93 21.6C11.66 22.39 11.89 22.68 13.05 26.6C14.01 29.83 14.91 30.48 16.25 28.91C18 26.87 18.98 26.87 21.55 28.91C24.4 31.17 25.69 31.36 26.43 29.62C27.3 27.61 30.52 10.03 30.14 9.43C29.94 9.12 29.48 8.88 29.11 8.89C28.74 8.9 23.52 10.95 17.52 13.44ZM29.12 11.21C28.96 11.89 28.12 16.15 27.25 20.69C26.38 25.23 25.47 29.16 25.23 29.43C24.83 29.89 17.45 24.96 17.39 24.19C17.38 23.99 19.44 21.45 21.98 18.54C24.52 15.62 26.44 13.08 26.25 12.89C26.05 12.7 22.8 14.54 19.02 16.97L12.16 21.38L9.37 20.52C7.83 20.04 6.77 19.47 7 19.24C7.49 18.78 28.17 10.06 28.92 10.01C29.19 9.99 29.28 10.53 29.12 11.21ZM21.27 17.53C20.85 18.06 19.44 19.73 18.14 21.24C16.83 22.75 15.53 24.86 15.25 25.91L14.73 27.84L13.77 25.11C13.02 22.97 12.96 22.3 13.53 21.98C13.92 21.76 15.9 20.46 17.93 19.1C22.11 16.3 22.34 16.19 21.27 17.53ZM17.61 25.85C17.78 26.12 17.54 26.64 17.07 27.02C16.37 27.58 16.23 27.5 16.23 26.53C16.23 25.35 17.04 24.95 17.61 25.85Z" fill="#FFFFFF" fill-opacity="1.000000" fill-rule="evenodd"/>
	<path id="icons8-телеграмма-app-50 2 (Traced)" d="M15.27 29.68C15.58 29.58 15.9 29.32 16.25 28.91C16.45 28.68 16.63 28.48 16.81 28.3C17.26 27.86 17.66 27.58 18.08 27.46C19 27.18 19.98 27.66 21.55 28.91C24.4 31.17 25.69 31.36 26.43 29.62C27.06 28.18 28.9 18.69 29.74 13.24C29.85 12.56 29.93 11.94 30 11.41C30.01 11.4 30.01 11.39 30.01 11.38C30.08 10.86 30.13 10.43 30.15 10.1C30.18 9.72 30.18 9.49 30.14 9.43C29.94 9.12 29.48 8.88 29.11 8.89C28.74 8.9 23.52 10.95 17.52 13.44C11.52 15.93 6.3 18.26 5.94 18.62C4.96 19.56 6.22 20.82 8.93 21.6C11.66 22.39 11.89 22.68 13.05 26.6C13.42 27.83 13.78 28.69 14.15 29.19C14.5 29.66 14.87 29.82 15.27 29.68ZM15.37 25.56C15.4 25.47 15.44 25.38 15.48 25.29C15.98 24.15 17.06 22.49 18.14 21.24C18.87 20.39 19.64 19.49 20.25 18.76C20.7 18.23 21.06 17.79 21.25 17.56C21.26 17.55 21.27 17.54 21.27 17.53C21.99 16.64 22.12 16.39 20.89 17.16C20.56 17.36 20.13 17.64 19.59 18C19.12 18.3 18.57 18.67 17.93 19.1C15.9 20.46 13.92 21.76 13.53 21.98C12.96 22.3 13.02 22.97 13.77 25.11L14.15 26.17L14.73 27.84L15.19 26.13L15.25 25.91C15.28 25.8 15.32 25.68 15.37 25.56ZM22.51 15.97Q22.57 16.02 22.62 16.09Q22.65 16.13 22.68 16.18Q22.94 15.86 23.18 15.56Q22.85 15.76 22.51 15.97ZM24.77 13.51C24.96 13.41 25.13 13.32 25.29 13.24C25.84 12.96 26.19 12.83 26.25 12.89C26.31 12.96 26.14 13.28 25.79 13.8C25.69 13.94 25.57 14.11 25.44 14.29C24.67 15.34 23.43 16.88 21.98 18.54C19.44 21.45 17.38 23.99 17.39 24.19C17.39 24.25 17.44 24.33 17.52 24.43C17.69 24.64 18.01 24.93 18.42 25.27C20.48 26.94 24.92 29.79 25.23 29.43C25.47 29.16 26.38 25.23 27.25 20.69C28.12 16.15 28.96 11.89 29.12 11.21C29.13 11.17 29.14 11.13 29.15 11.09C29.16 11.02 29.17 10.96 29.18 10.9C29.24 10.37 29.14 9.99 28.92 10.01C28.25 10.06 11.78 16.98 7.83 18.82C7.83 18.82 7.82 18.82 7.82 18.83C7.34 19.05 7.06 19.19 7 19.24C6.86 19.37 7.17 19.63 7.75 19.91C7.76 19.91 7.77 19.91 7.77 19.92C8.19 20.11 8.74 20.32 9.37 20.52L12.16 21.38L19.02 16.97C21.32 15.49 23.43 14.23 24.77 13.51ZM17.62 25.87C17.61 25.86 17.61 25.86 17.61 25.85C17.46 25.61 17.29 25.47 17.12 25.4C16.69 25.23 16.27 25.62 16.23 26.4L16.23 26.41C16.23 26.45 16.23 26.49 16.23 26.53C16.23 27.07 16.27 27.34 16.43 27.37C16.56 27.39 16.76 27.27 17.07 27.02C17.11 26.99 17.15 26.95 17.19 26.92C17.2 26.9 17.22 26.89 17.24 26.87C17.24 26.87 17.24 26.87 17.24 26.87C17.59 26.52 17.75 26.1 17.62 25.87Z" fill="#29B6F6" fill-opacity="1.000000" fill-rule="evenodd"/>
	<ellipse id="Ellipse 9" cx="20.000000" cy="19.500000" rx="19.200001" ry="18.700001" stroke="#29B6F6" stroke-opacity="1.000000" stroke-width="1.600000"/>
</svg>
