<svg width="40.000000" height="39.000000" viewBox="0 0 40 39" fill="none" xmlns="http://www.w3.org/2000/svg" xmlns:xlink="http://www.w3.org/1999/xlink">
	<desc>
			Created with Pixso.
	</desc>
	<defs>
		<clipPath id="clip449_92">
			<rect id="icons8-whatsapp 1" rx="-0.500000" width="39.000000" height="38.000000" transform="translate(0.500000 0.500000)" fill="white" fill-opacity="0"/>
		</clipPath>
	</defs>
	<rect id="icons8-whatsapp 1" rx="-0.500000" width="39.000000" height="38.000000" transform="translate(0.500000 0.500000)" fill="#FFFFFF" fill-opacity="0"/>
	<g clip-path="url(#clip449_92)">
		<path id="Vector" d="M20 1.56C9.84 1.56 1.6 9.6 1.6 19.5C1.6 22.68 2.49 25.65 3.98 28.24L1.62 36.44C1.59 36.58 1.59 36.71 1.62 36.85C1.65 36.98 1.72 37.1 1.82 37.2C1.92 37.3 2.04 37.37 2.17 37.4C2.31 37.44 2.45 37.45 2.59 37.41L11.36 35.29C13.94 36.63 16.87 37.44 20 37.44C30.15 37.44 38.4 29.39 38.4 19.5C38.4 9.6 30.15 1.56 20 1.56ZM20 3.12C29.28 3.12 36.8 10.44 36.8 19.5C36.8 28.55 29.28 35.88 20 35.88C17.02 35.88 14.23 35.12 11.8 33.8C11.63 33.7 11.42 33.67 11.22 33.72L3.54 35.58L5.6 28.41C5.63 28.31 5.63 28.2 5.62 28.1C5.61 27.99 5.57 27.89 5.52 27.8C4.04 25.36 3.2 22.53 3.2 19.5C3.2 10.44 10.71 3.12 20 3.12ZM13.31 10.14C12.8 10.14 12.06 10.32 11.46 10.95C11.1 11.33 9.6 12.76 9.6 15.28C9.6 17.9 11.46 20.16 11.69 20.45L11.69 20.45L11.69 20.45C11.67 20.43 11.97 20.86 12.38 21.38C12.79 21.9 13.37 22.59 14.09 23.33C15.53 24.81 17.56 26.52 20.08 27.57C21.24 28.05 22.15 28.34 22.85 28.55C24.13 28.95 25.3 28.89 26.18 28.76C26.84 28.66 27.56 28.36 28.28 27.92C28.99 27.47 29.69 26.92 30 26.09C30.22 25.49 30.34 24.94 30.38 24.48C30.4 24.26 30.4 24.06 30.39 23.87C30.37 23.68 30.39 23.54 30.21 23.26C29.84 22.66 29.41 22.65 28.97 22.43C28.73 22.32 28.03 21.98 27.34 21.66C26.64 21.34 26.03 21.05 25.66 20.92C25.43 20.84 25.14 20.72 24.73 20.76C24.31 20.81 23.9 21.1 23.67 21.45C23.44 21.77 22.53 22.82 22.25 23.12C22.25 23.12 22.27 23.13 22.17 23.08C21.82 22.91 21.4 22.77 20.78 22.46C20.16 22.14 19.39 21.67 18.54 20.94L18.54 20.93C17.28 19.85 16.39 18.49 16.11 18.03C16.13 18.01 16.11 18.04 16.15 18L16.15 18C16.44 17.72 16.69 17.4 16.9 17.16C17.21 16.82 17.34 16.52 17.49 16.24C17.77 15.68 17.61 15.06 17.45 14.74L17.45 14.74C17.46 14.76 17.36 14.54 17.25 14.29C17.14 14.04 17 13.71 16.85 13.36C16.55 12.66 16.21 11.87 16.01 11.41L16.01 11.41C15.78 10.87 15.46 10.48 15.05 10.29C14.63 10.1 14.27 10.15 14.25 10.15L14.25 10.15C13.96 10.14 13.63 10.14 13.31 10.14ZM13.31 11.7C13.62 11.7 13.92 11.7 14.18 11.71C14.44 11.72 14.42 11.72 14.37 11.7C14.32 11.68 14.39 11.67 14.54 12.02C14.73 12.47 15.07 13.25 15.37 13.96C15.52 14.31 15.66 14.64 15.77 14.9C15.89 15.16 15.95 15.3 16.02 15.44L16.02 15.44L16.02 15.44C16.09 15.57 16.08 15.49 16.06 15.54C15.89 15.86 15.87 15.94 15.7 16.13C15.44 16.43 15.17 16.75 15.03 16.89C14.91 17 14.68 17.19 14.55 17.55C14.41 17.91 14.47 18.4 14.7 18.77C14.99 19.26 15.97 20.8 17.48 22.11C18.44 22.93 19.33 23.47 20.04 23.84C20.75 24.2 21.33 24.41 21.46 24.48C21.76 24.63 22.1 24.74 22.49 24.69C22.88 24.65 23.22 24.42 23.43 24.18L23.43 24.18C23.72 23.86 24.57 22.92 24.97 22.34C24.99 22.34 24.99 22.34 25.12 22.39L25.12 22.39L25.12 22.39C25.18 22.41 25.96 22.75 26.65 23.07C27.34 23.39 28.04 23.72 28.27 23.83C28.59 23.99 28.75 24.09 28.79 24.09C28.79 24.16 28.79 24.24 28.78 24.35C28.76 24.66 28.67 25.1 28.5 25.56C28.41 25.79 27.98 26.26 27.42 26.6C26.87 26.94 26.19 27.18 25.95 27.22C25.2 27.32 24.3 27.36 23.33 27.06C22.65 26.86 21.8 26.59 20.71 26.13C18.49 25.21 16.6 23.64 15.25 22.25C14.58 21.56 14.04 20.92 13.65 20.43C13.27 19.94 13.1 19.69 12.96 19.51L12.96 19.51C12.71 19.19 11.2 17.13 11.2 15.28C11.2 13.32 12.13 12.55 12.64 12.02C12.9 11.74 13.19 11.7 13.31 11.7Z" fill="#25D366" fill-opacity="1.000000" fill-rule="evenodd"/>
	</g>
</svg>
