<?xml version="1.0" standalone="no"?>
<!DOCTYPE svg PUBLIC "-//W3C//DTD SVG 20010904//EN"
 "http://www.w3.org/TR/2001/REC-SVG-20010904/DTD/svg10.dtd">
<svg version="1.0" xmlns="http://www.w3.org/2000/svg"
 width="105.000000pt" height="105.000000pt" viewBox="0 0 105.000000 105.000000"
 preserveAspectRatio="xMidYMid meet">
<metadata>
Created by potrace 1.14, written by Peter Selinger 2001-2017
</metadata>
<g transform="translate(0.000000,105.000000) scale(0.100000,-0.100000)"
fill="#000000" stroke="none">
<path d="M506 934 c-9 -9 -28 -14 -43 -12 -21 2 -30 -3 -40 -22 -6 -13 -22
-28 -34 -32 -16 -6 -20 -14 -16 -34 3 -18 -2 -33 -14 -45 -18 -18 -18 -20 -2
-39 11 -12 16 -32 15 -50 -3 -25 0 -30 17 -30 14 0 25 -9 31 -25 7 -19 17 -25
40 -25 17 0 38 -7 47 -15 14 -14 17 -14 32 0 10 8 32 15 49 15 25 0 33 5 38
24 3 15 14 26 27 28 18 2 22 9 20 33 -1 16 5 37 13 46 15 16 15 20 0 40 -8 13
-13 32 -10 44 4 15 -2 25 -20 35 -14 7 -28 21 -32 32 -3 12 -15 18 -32 18 -15
0 -37 7 -49 15 -19 13 -23 13 -37 -1z m42 -33 c2 -13 0 -21 -5 -18 -5 3 -10
-5 -11 -19 -2 -27 5 -29 31 -10 12 10 14 15 6 18 -19 6 -2 38 20 38 32 0 35
-31 4 -56 -25 -21 -26 -22 -6 -17 12 3 27 11 34 19 8 10 16 11 29 4 24 -13 15
-50 -12 -50 -13 0 -17 4 -12 13 5 7 0 6 -11 -3 -16 -14 -16 -15 -1 -18 9 -2
14 -7 11 -12 -3 -5 -12 -7 -20 -3 -8 3 -15 1 -15 -5 0 -13 24 -10 44 7 21 17
46 7 46 -19 0 -23 -22 -36 -41 -24 -9 5 -5 10 11 16 37 14 18 18 -23 5 -37
-12 -44 -27 -16 -35 11 -3 11 -2 -1 7 -13 9 -13 11 3 11 9 0 17 -4 17 -10 0
-5 6 -10 14 -10 16 0 29 -27 20 -41 -8 -13 -38 -11 -52 3 -7 7 -12 8 -12 2 0
-5 5 -15 10 -20 17 -17 0 -45 -24 -42 -26 4 -35 38 -9 39 14 0 15 2 3 6 -8 3
-23 14 -33 24 -10 11 -23 19 -29 19 -7 0 -3 -7 8 -16 18 -14 18 -15 -6 -9 -20
5 -22 4 -10 -5 13 -9 12 -11 -5 -9 -42 3 -50 0 -31 -14 16 -12 16 -14 2 -26
-9 -7 -23 -11 -31 -7 -22 8 -19 44 4 51 11 3 19 14 18 24 -1 11 -6 17 -15 14
-10 -4 -11 1 -7 20 6 22 4 26 -13 24 -12 0 -19 -4 -16 -8 9 -15 -30 -19 -44
-5 -13 12 -13 18 -2 30 14 18 40 21 40 6 0 -5 12 -10 26 -10 23 0 25 2 14 15
-11 13 -10 18 6 29 18 14 18 15 -5 33 -28 23 -23 53 9 53 11 0 20 -2 20 -4 0
-2 3 -11 6 -19 3 -9 0 -17 -8 -20 -7 -2 -5 -3 5 -2 12 2 17 -4 17 -22 0 -16
-4 -22 -12 -17 -7 4 -8 3 -4 -4 4 -7 2 -12 -3 -12 -6 0 -11 -4 -11 -10 0 -5 5
-9 11 -7 6 1 13 -14 15 -33 3 -32 2 -34 -11 -16 -8 10 -12 23 -8 29 3 6 1 7
-5 3 -9 -5 -9 -13 0 -29 7 -12 11 -26 9 -32 -1 -5 6 -2 17 8 10 9 26 17 35 17
20 0 22 11 5 29 -10 11 -10 13 0 7 7 -4 12 -1 12 8 0 11 -10 16 -31 16 -17 0
-28 4 -24 10 9 15 41 12 58 -5 13 -12 17 -11 33 8 12 13 13 17 3 10 -12 -10
-23 -10 -47 -1 -25 10 -31 17 -27 35 2 13 0 21 -4 18 -14 -8 -20 32 -8 44 18
18 42 8 45 -18z m-102 -57 c10 -8 14 -13 8 -10 -7 3 -14 -1 -18 -9 -6 -17 -42
-20 -51 -5 -21 34 26 52 61 24z m-13 -101 c-7 -3 -13 -11 -13 -19 0 -9 5 -12
10 -9 6 3 10 1 10 -5 0 -6 6 -8 13 -5 6 4 3 -1 -7 -9 -25 -21 -55 -20 -63 0
-6 16 46 68 57 57 3 -3 -1 -8 -7 -10z m107 -78 c-7 -8 -16 -12 -21 -9 -5 3 -6
-2 -3 -11 6 -14 8 -14 20 2 13 17 13 17 14 -3 0 -28 -31 -40 -47 -19 -15 21
-8 40 20 52 27 13 34 8 17 -12z"/>
<path d="M516 903 c-6 -14 -5 -15 5 -6 7 7 10 15 7 18 -3 3 -9 -2 -12 -12z"/>
<path d="M385 770 c3 -5 8 -10 11 -10 2 0 4 5 4 10 0 6 -5 10 -11 10 -5 0 -7
-4 -4 -10z"/>
<path d="M571 764 c0 -11 3 -14 6 -6 3 7 2 16 -1 19 -3 4 -6 -2 -5 -13z"/>
<path d="M550 730 c-8 -5 -10 -10 -5 -10 6 0 17 5 25 10 8 5 11 10 5 10 -5 0
-17 -5 -25 -10z"/>
<path d="M577 713 c-10 -10 -8 -23 4 -23 5 0 8 4 4 9 -3 5 7 12 22 14 28 4 28
4 2 6 -14 0 -29 -2 -32 -6z"/>
<path d="M5 511 c-3 -2 -5 -53 -5 -113 l0 -108 76 0 c56 0 74 3 71 13 -2 6 -8
11 -13 11 -5 -1 -30 -4 -57 -7 -52 -6 -48 -12 -49 71 l-1 37 45 -3 c25 -2 49
1 52 6 3 5 -6 10 -19 11 -14 1 -36 3 -49 4 -28 2 -37 22 -25 53 6 19 12 20 56
14 52 -8 59 -7 48 9 -6 10 -121 12 -130 2z"/>
<path d="M517 513 c-4 -3 -7 -55 -7 -115 0 -89 3 -108 15 -108 12 0 15 19 15
115 0 105 -5 127 -23 108z"/>
<path d="M365 441 c-11 -5 -26 -6 -32 -4 -10 4 -13 -17 -14 -83 -1 -96 1 -137
7 -143 9 -10 17 11 18 47 1 39 1 39 33 30 36 -10 86 9 97 37 11 30 6 73 -11
94 -20 24 -68 34 -98 22z m63 -18 c52 -45 14 -142 -49 -126 -45 12 -50 115 -6
133 31 12 32 12 55 -7z"/>
<path d="M597 426 c-47 -44 -30 -123 31 -141 12 -3 22 -2 22 3 0 5 -8 12 -19
15 -30 8 -42 59 -23 98 21 41 47 45 79 13 20 -20 24 -32 19 -57 -3 -18 -15
-39 -26 -49 -25 -21 -25 -28 -1 -21 29 7 51 36 56 72 5 41 -27 78 -75 86 -29
5 -40 2 -63 -19z"/>
<path d="M911 434 c-19 -14 -27 -14 -47 -4 -18 10 -30 11 -49 2 -15 -7 -25 -8
-25 -2 0 6 -6 10 -12 10 -9 0 -13 -22 -13 -75 0 -53 4 -75 13 -75 13 0 13 1
15 66 1 22 8 48 16 58 13 15 15 15 31 1 16 -14 21 -14 59 1 39 16 43 15 61 -1
11 -10 18 -20 15 -23 -2 -3 2 -14 10 -26 20 -27 19 -46 -2 -61 -14 -10 -10
-12 24 -12 l41 0 -20 56 c-33 87 -72 116 -117 85z"/>
<path d="M176 428 c4 -7 15 -24 25 -38 16 -24 16 -26 -12 -60 -19 -22 -25 -36
-18 -39 12 -4 21 6 45 45 10 16 12 15 29 -14 11 -18 28 -32 38 -32 18 0 18 2
5 23 -43 66 -43 62 -19 96 19 26 20 31 6 31 -8 0 -20 -12 -25 -26 l-10 -26
-21 26 c-21 26 -57 38 -43 14z"/>
<path d="M890 380 c-35 -35 -20 -82 30 -94 l25 -7 -22 17 c-14 10 -23 27 -23
44 0 30 13 45 45 53 15 4 13 5 -7 6 -16 0 -37 -8 -48 -19z"/>
<path d="M259 153 c-1 -5 -2 -15 -3 -23 0 -9 -9 -14 -21 -12 -16 3 -17 1 -8
-8 18 -19 43 -4 43 25 0 23 -8 36 -11 18z"/>
<path d="M305 150 c-11 -18 6 -50 25 -50 24 0 33 15 25 40 -7 21 -39 27 -50
10z m35 -20 c0 -11 -4 -20 -9 -20 -11 0 -22 26 -14 34 12 12 23 5 23 -14z"/>
<path d="M392 135 c4 -42 42 -43 46 -1 2 18 0 26 -7 21 -6 -3 -9 -11 -6 -16 4
-5 3 -14 -1 -21 -5 -8 -12 -2 -21 17 l-13 30 2 -30z"/>
<path d="M470 129 c0 -27 2 -30 15 -19 10 9 15 9 15 1 0 -25 15 -9 17 19 2 26
-1 30 -22 30 -21 0 -25 -5 -25 -31z m37 5 c-3 -3 -12 -4 -19 -1 -8 3 -5 6 6 6
11 1 17 -2 13 -5z"/>
<path d="M551 128 c0 -27 2 -30 9 -13 7 18 8 19 15 3 12 -29 25 -21 25 15 0
25 -3 29 -11 17 -8 -11 -12 -12 -16 -2 -9 24 -23 12 -22 -20z"/>
<path d="M637 153 c-4 -3 -7 -17 -7 -30 0 -19 5 -23 28 -22 17 1 21 3 9 6 -14
4 -16 8 -6 19 9 11 8 14 -2 14 -11 0 -11 2 1 10 13 8 13 10 -1 10 -9 0 -19 -3
-22 -7z"/>
<path d="M704 150 c3 -8 9 -23 12 -33 6 -15 8 -14 20 9 17 33 18 39 1 25 -10
-8 -17 -7 -26 2 -11 10 -12 9 -7 -3z"/>
<path d="M775 149 c-4 -6 1 -17 11 -25 18 -14 18 -14 0 -7 -13 4 -17 3 -12 -5
9 -15 46 -16 46 -1 0 7 -8 18 -17 25 -17 13 -17 14 1 7 13 -4 17 -3 12 5 -9
15 -33 16 -41 1z"/>
</g>
</svg>
