<svg width="110" height="90" viewBox="0 0 110 90" fill="none" xmlns="http://www.w3.org/2000/svg">
<path d="M107.198 69.8636L106.416 67.8955C101.649 71.9469 91.7066 71.5821 91.7066 64.4969C91.7066 59.1493 97.8553 56.202 103.518 59.975L102.86 58.3813C101.764 55.9907 100 54.6659 96.8543 55.5011C94.1375 56.2404 91.8877 58.3813 90.2671 57.8437C89.0755 57.498 88.0459 55.2323 87.0164 55.3187C85.9868 55.4051 83.2509 57.3444 83.2509 58.4869V69.9116H80.6675V53.8978H83.2795V56.9412C84.1851 55.7123 87.1689 53.6866 88.1413 53.5906C89.4854 53.5042 91.0011 55.9619 91.8877 56.6052C92.2309 56.8164 92.7933 56.6052 93.4225 56.2308C95.7962 54.8195 97.4072 53.197 100.563 53.6866C101.62 53.8321 102.621 54.2544 103.466 54.9114C104.311 55.5684 104.97 56.4372 105.377 57.4308L110 69.9116L107.198 69.8636ZM105.358 66.4554C105.48 66.2352 105.544 65.9874 105.544 65.7353C105.544 65.4833 105.48 65.2354 105.358 65.0153L103.89 61.2711C103.79 60.9939 103.633 60.7412 103.429 60.5294C103.225 60.3176 102.979 60.1516 102.708 60.0422C97.0831 57.5844 94.2614 60.1382 94.2614 64.4969C94.2614 70.8428 101.735 71.6781 105.329 66.417" fill="white"/>
<path d="M42.0877 69.4888C38.713 69.4888 35.6911 67.9431 35.6911 61.8659C35.6908 61.3498 35.7163 60.8339 35.7674 60.3203L35.8341 59.7826C36.4633 55.4432 39.142 54.2335 42.0877 54.2335C45.4528 54.2335 48.0266 57.6513 48.0266 61.8659C48.0266 66.0806 45.4528 69.4888 42.0877 69.4888ZM42.0877 53.283C39.867 53.2084 37.7074 54.0232 36.0819 55.5488V53.8975H33.5081V77.8989H36.0629V68.2983C37.6921 69.8168 39.8499 70.6274 42.0686 70.5545C53.5081 70.5545 53.5081 53.3598 42.0686 53.3598" fill="white"/>
<path d="M56.3871 45.9102H53.8228V69.8636H56.3871V45.9102Z" fill="white"/>
<path d="M28.3317 69.8632L23.7083 62.778C23.687 62.8053 23.6679 62.8342 23.6511 62.8644C22.1355 65.039 20.8841 67.3887 19.9237 69.8632H16.7302L23.0219 61.7603C21.1821 59.0626 19.2088 56.3264 17.7693 53.8975H20.7626L24.7283 59.7922C25.7698 57.8952 26.6746 55.9252 27.4357 53.8975H30.6006L25.4337 60.7331L31.5729 69.8632H28.3317Z" fill="white"/>
<path d="M68.4557 53.293C56.7684 53.293 56.7684 70.478 68.4557 70.478C80.143 70.478 80.2193 53.293 68.4557 53.293ZM68.4557 69.4891C64.9666 69.4891 62.3451 66.0713 62.3451 61.8663C62.3451 57.6612 64.9857 54.2338 68.4557 54.2338C71.9256 54.2338 74.5758 57.6516 74.5758 61.8663C74.5758 66.0809 71.9447 69.4891 68.4557 69.4891Z" fill="white"/>
<path d="M28.265 83.8612H27.0353V87.7494C27.0353 88.5751 26.6921 88.9303 25.9962 88.9303C25.3003 88.9303 24.8904 88.5655 24.8904 87.7494V87.471H23.6892V87.8742C23.6844 88.1692 23.7423 88.4619 23.8593 88.7324C23.9762 89.003 24.1494 89.2451 24.3671 89.4426C24.5848 89.64 24.842 89.7881 25.1214 89.8769C25.4008 89.9658 25.6959 89.9933 25.9867 89.9575C26.5832 89.9884 27.1711 89.8047 27.6454 89.4391C27.8608 89.2353 28.0282 88.9855 28.1355 88.7081C28.2427 88.4307 28.2869 88.1327 28.265 87.8358V83.8612ZM37.5215 86.8374C37.4861 86.2654 37.2855 85.7164 36.9443 85.2579C36.603 84.7994 36.1361 84.4513 35.6009 84.2567C35.0658 84.062 34.4858 84.0293 33.9324 84.1624C33.3789 84.2955 32.8763 84.5887 32.4862 85.0059C32.0962 85.4231 31.8358 85.9461 31.7371 86.5104C31.6385 87.0748 31.7059 87.6559 31.931 88.1821C32.1561 88.7084 32.5292 89.1569 33.0042 89.4723C33.4792 89.7878 34.0354 89.9564 34.6044 89.9575C35.0082 89.9765 35.4113 89.9072 35.786 89.7545C36.1607 89.6018 36.4982 89.3693 36.7753 89.0729C37.0524 88.7765 37.2625 88.4233 37.3913 88.0374C37.5201 87.6515 37.5645 87.2421 37.5215 86.8374ZM36.2536 86.8374C36.2536 88.239 35.6054 88.9495 34.6044 88.9495C33.6035 88.9495 32.9648 88.239 32.9648 86.8374C32.9648 85.4357 33.613 84.7348 34.6044 84.7348C35.5958 84.7348 36.2536 85.4357 36.2536 86.8374ZM46.0153 83.8612H44.7665V87.5094C44.7665 88.4695 44.3375 88.9303 43.4795 88.9303C42.6216 88.9303 42.1926 88.4887 42.1926 87.5094V83.8612H40.9533V87.6246C41.0198 88.2539 41.3152 88.8362 41.7824 89.2594C42.2497 89.6825 42.8559 89.9166 43.4843 89.9166C44.1127 89.9166 44.7189 89.6825 45.1862 89.2594C45.6534 88.8362 45.9488 88.2539 46.0153 87.6246V83.8612ZM54.776 89.8231L53.2984 87.4038C53.6946 87.3296 54.05 87.1118 54.2977 86.7916C54.5453 86.4715 54.668 86.0711 54.6425 85.6661C54.6425 84.5428 53.8799 83.8612 52.5834 83.8612H49.6092V89.8231H50.8675V87.4902H51.9733L53.3365 89.8231H54.776ZM50.8675 84.85H52.4118C53.0506 84.85 53.3651 85.1573 53.3651 85.6661C53.3651 86.1749 53.022 86.5013 52.4118 86.5013H50.8675V84.85ZM62.9648 83.89H61.8113V88.0854L59.2469 83.89H57.8361V89.8519H58.98V85.5701L61.573 89.8519H62.9552L62.9648 83.89ZM67.8075 84.85H70.8866V83.89H66.5587V89.8519H70.8866V88.8247H67.8075V87.2022H70.7436V86.2421H67.8075V84.85ZM77.6454 83.89L76.2345 86.4917L74.8332 83.89H73.4605L75.5958 87.567V89.8519H76.8446V87.567L78.9705 83.89H77.6454ZM83.7274 84.6964C84.4042 84.6964 84.8713 85.0229 84.919 85.6565H86.1392C86.1524 85.3841 86.0983 85.1126 85.9819 84.8663C85.8654 84.62 85.6902 84.4066 85.4719 84.2452C84.9696 83.9036 84.3709 83.7352 83.7655 83.7652C83.1642 83.7359 82.5685 83.8934 82.0591 84.2164C81.8458 84.3549 81.6725 84.5477 81.557 84.7753C81.4415 85.0029 81.3878 85.2572 81.4014 85.5125C81.4014 86.5878 82.0782 86.9142 82.8885 87.1254L84.1373 87.4422C84.7283 87.5766 85.0239 87.7686 85.0239 88.2295C85.0239 88.6903 84.5663 89.0455 83.8322 89.0455C83.0982 89.0455 82.4976 88.7287 82.45 87.8838H81.2012C81.176 88.1855 81.2265 88.4886 81.3481 88.7654C81.4697 89.0423 81.6585 89.2838 81.8971 89.4679C82.4597 89.8457 83.1283 90.0309 83.8036 89.996C84.4349 90.024 85.0607 89.8673 85.6054 89.5447C85.8276 89.3979 86.0073 89.1944 86.1261 88.9549C86.245 88.7155 86.2989 88.4486 86.2822 88.1815C86.2822 86.9142 85.6435 86.6357 84.6044 86.3861L83.3747 86.0885C82.9171 85.9829 82.6311 85.8197 82.6311 85.4549C82.6311 85.0901 83.0601 84.706 83.7179 84.706" fill="white"/>
<path d="M73.8988 18.9611C72.6786 17.7323 71.5442 15.5529 70.2001 15.1209C70.0575 15.0673 69.9109 15.0256 69.7616 14.9961C69.8767 14.8981 69.985 14.7923 70.0857 14.6793C71.039 13.6136 70.9246 11.1559 71.3631 9.48538C69.7043 9.03415 67.6262 7.71887 66.2344 8.00689C66.0886 8.03404 65.9452 8.07255 65.8054 8.12209C65.8546 7.98128 65.8928 7.83684 65.9198 7.69007C66.2058 6.28838 64.8902 4.21466 64.4422 2.54415C62.7739 2.98578 60.324 2.88018 59.2658 3.83064C59.151 3.92892 59.0427 4.03475 58.9417 4.14745C58.9192 3.99971 58.8808 3.85486 58.8273 3.71543C58.3793 2.36174 56.2058 1.21927 55.0142 0C53.794 1.21927 51.6205 2.36174 51.201 3.71543C51.1518 3.85623 51.1136 4.00067 51.0866 4.14745C50.9856 4.03475 50.8774 3.92892 50.7625 3.83064C49.7043 2.87058 47.2544 2.98578 45.5861 2.54415C45.1381 4.21466 43.8226 6.28838 44.1085 7.69007C44.1355 7.83684 44.1737 7.98128 44.2229 8.12209C44.0831 8.07255 43.9397 8.03404 43.794 8.00689C42.4022 7.71887 40.324 9.03415 38.6653 9.48538C39.1038 11.1559 39.0084 13.6136 39.9427 14.6793C40.0434 14.7923 40.1516 14.8981 40.2668 14.9961C40.1175 15.0256 39.9708 15.0673 39.8283 15.1209C38.4841 15.5625 37.3497 17.7419 36.1295 18.9611C37.3497 20.19 38.4841 22.3693 39.8283 22.8014L40.2668 22.9166L39.9427 23.2334C38.9894 24.2991 39.1038 26.7568 38.6653 28.4273C40.324 28.8881 42.4022 30.2034 43.794 29.9154C43.9465 29.9154 44.0895 29.8386 44.2229 29.8002C44.1737 29.941 44.1355 30.0855 44.1085 30.2322C43.8226 31.6243 45.1381 33.7076 45.5861 35.3685C47.2544 34.9365 49.7043 35.0325 50.7625 34.0917C50.8799 33.9927 50.9883 33.8834 51.0866 33.7652C51.1125 33.9154 51.1507 34.0631 51.201 34.2069C51.6491 35.5605 53.8226 36.6934 55.0142 37.9127C56.2344 36.6934 58.4079 35.5605 58.8273 34.2069C58.882 34.0645 58.9204 33.9164 58.9417 33.7652C59.04 33.8834 59.1485 33.9927 59.2658 34.0917C60.324 35.0517 62.7739 34.9365 64.4422 35.3685C64.8902 33.7076 66.2058 31.6243 65.9198 30.2322C65.8928 30.0855 65.8546 29.941 65.8054 29.8002C65.9389 29.8002 66.0818 29.8866 66.2344 29.9154C67.6262 30.2034 69.7043 28.8881 71.3631 28.4273C70.9246 26.7568 71.0199 24.2991 70.0857 23.2334L69.7616 22.9166L70.2001 22.8014C71.5442 22.3501 72.6786 20.1708 73.8988 18.9611ZM65.6624 28.8593C64.6043 28.2833 63.5747 26.5264 63.0409 25.0191L66.2344 25.4127L64.3278 22.907C65.8721 22.6382 67.8359 22.667 68.8369 23.2814C69.1858 23.5603 69.4631 23.9196 69.6456 24.3289C69.8281 24.7382 69.9103 25.1856 69.8855 25.6335C69.8802 26.3496 69.9699 27.0632 70.1524 27.7553C69.4643 27.9414 68.8039 28.2191 68.1886 28.5809C67.8131 28.8233 67.3865 28.9738 66.9429 29.0205C66.4993 29.0671 66.051 29.0087 65.6338 28.8497M57.5404 11.4055C57.4963 11.342 57.4414 11.2867 57.3783 11.2423L60.9436 8.54452L60.6004 11.4247V11.7415L60.5432 12.1639C60.2198 12.1691 59.8988 12.2209 59.59 12.3175C59.2842 12.4379 59.016 12.6385 58.8132 12.8985C58.6103 13.1585 58.4803 13.4684 58.4365 13.796C58.4365 13.94 58.3793 14.1033 58.3602 14.2665C57.6228 13.7332 56.7699 13.3844 55.8721 13.2488C55.977 12.9992 56.0819 12.788 56.1772 12.6056C56.2512 12.4389 56.3763 12.3005 56.5342 12.2107C56.692 12.1208 56.8742 12.0843 57.0542 12.1063C57.2353 12.1063 57.4736 12.1063 57.5594 11.8663C57.5814 11.7987 57.5868 11.7267 57.5752 11.6565C57.5636 11.5863 57.5353 11.5199 57.4927 11.4631M54.0132 11.0023C53.9086 10.9928 53.8033 10.9928 53.6986 11.0023C53.5528 10.9876 53.4059 10.9876 53.2601 11.0023L53.7654 9.08215V8.94774L54.957 4.45467L56.692 10.9639C56.543 10.9492 56.3929 10.9492 56.2439 10.9639C56.1361 10.954 56.0276 10.954 55.9198 10.9639C55.9525 10.6129 55.8942 10.2594 55.7505 9.93792C55.6068 9.61647 55.3826 9.33813 55.1 9.13015L54.957 9.03415L54.814 9.13015C54.5282 9.33568 54.3011 9.61331 54.1555 9.93518C54.0099 10.257 53.951 10.6118 53.9846 10.9639M57.1877 11.6167C57.1952 11.6316 57.1991 11.648 57.1991 11.6647C57.1991 11.6814 57.1952 11.6978 57.1877 11.7127H56.997C56.7564 11.6881 56.5142 11.7396 56.3041 11.86C56.0939 11.9805 55.9263 12.1639 55.8245 12.3847C55.7101 12.6056 55.5957 12.8456 55.4622 13.1432C55.1037 13.1144 54.7435 13.1144 54.385 13.1432C54.2611 12.8456 54.1467 12.6056 54.0323 12.3847C53.9293 12.1648 53.7615 11.9822 53.5516 11.8619C53.3417 11.7416 53.1001 11.6895 52.8597 11.7127H52.6691C52.6628 11.6975 52.6595 11.6812 52.6595 11.6647C52.6595 11.6482 52.6628 11.6319 52.6691 11.6167C52.9309 11.3833 53.2732 11.2626 53.6224 11.2807C53.8509 11.2755 54.0771 11.3283 54.2801 11.4343L54.5185 11.5591L54.3945 11.3191C54.2479 10.9882 54.219 10.6166 54.3128 10.2668C54.4065 9.91702 54.6172 9.61051 54.9093 9.39897C55.2012 9.61067 55.4111 9.91779 55.5032 10.2679C55.5953 10.6181 55.564 10.9896 55.4145 11.3191L55.3002 11.5591L55.6338 11.4631C55.8368 11.3571 56.063 11.3043 56.2916 11.3095C56.4648 11.2979 56.6385 11.3216 56.8023 11.3794C56.9661 11.4371 57.1167 11.5276 57.2449 11.6455M52.4784 11.8567C52.5642 12.0871 52.8121 12.0967 52.9837 12.0967C53.1636 12.0747 53.3459 12.1112 53.5037 12.2011C53.6615 12.2909 53.7866 12.4293 53.8607 12.596C53.9753 12.8039 54.0772 13.0187 54.1657 13.2392C53.2717 13.378 52.4227 13.7266 51.6872 14.2569C51.6872 14.0937 51.6872 13.9304 51.6109 13.7864C51.5682 13.457 51.4375 13.1454 51.2327 12.885C51.0278 12.6246 50.7566 12.4252 50.4479 12.3079C50.1394 12.2095 49.8182 12.1578 49.4946 12.1543L49.0656 8.56372L50.9722 10.023H51.0294L52.6023 11.2135C52.5381 11.2635 52.4804 11.3216 52.4308 11.3863C52.3882 11.4431 52.3599 11.5094 52.3483 11.5797C52.3367 11.6499 52.3421 11.7219 52.364 11.7895M52.4403 26.5072L52.5166 26.5936L48.9989 29.2434L49.4088 25.816H49.3516C49.6945 25.8195 50.0356 25.7677 50.3621 25.6623C50.6679 25.5407 50.9356 25.3383 51.1369 25.0764C51.3382 24.8146 51.4657 24.5029 51.5061 24.1743C51.5423 24.0227 51.5678 23.8687 51.5823 23.7134C52.3239 24.2217 53.1722 24.5503 54.0609 24.6735C53.956 24.9327 53.8512 25.1343 53.7558 25.3263C53.6806 25.4921 53.5552 25.6296 53.3977 25.7192C53.2402 25.8089 53.0586 25.8461 52.8788 25.8256C52.6977 25.8256 52.4594 25.8256 52.3736 26.0656C52.3516 26.1332 52.3462 26.2052 52.3578 26.2754C52.3694 26.3456 52.3977 26.412 52.4403 26.4688M55.9198 26.92C56.0244 26.9295 56.1297 26.9295 56.2344 26.92C56.3675 26.9342 56.5017 26.9342 56.6348 26.92L56.282 28.2737L56.12 28.8977L54.957 33.2756L53.794 28.8977L53.6128 28.1873L53.2696 26.92C53.4027 26.9342 53.5369 26.9342 53.67 26.92C53.7779 26.9293 53.8863 26.9293 53.9941 26.92C53.9614 27.271 54.0198 27.6245 54.1635 27.946C54.3072 28.2674 54.5313 28.5458 54.814 28.7537L54.957 28.8593L55.1095 28.7537C55.3921 28.5458 55.6163 28.2674 55.76 27.946C55.9037 27.6245 55.9621 27.271 55.9293 26.92M52.7263 26.2672C52.7263 26.2672 52.7263 26.2 52.7263 26.1808C52.7892 26.1686 52.854 26.1686 52.9169 26.1808C53.1584 26.2032 53.4008 26.1497 53.6108 26.0276C53.8207 25.9055 53.988 25.7209 54.0895 25.4991C54.2196 25.2524 54.3373 24.9993 54.4422 24.7407C54.8034 24.7791 55.1677 24.7791 55.5289 24.7407C55.6529 25.0383 55.7673 25.2783 55.8817 25.4991C55.9843 25.72 56.1517 25.9039 56.3614 26.0258C56.5711 26.1477 56.813 26.2018 57.0542 26.1808H57.2449C57.2512 26.196 57.2544 26.2123 57.2544 26.2288C57.2544 26.2453 57.2512 26.2616 57.2449 26.2768C57.1165 26.395 56.9662 26.4864 56.8026 26.5457C56.639 26.6051 56.4653 26.6311 56.2916 26.6224C56.0635 26.6227 55.8385 26.5701 55.6338 26.4688L55.3955 26.344L55.5194 26.5744C55.6643 26.9055 55.6922 27.2766 55.5985 27.626C55.5049 27.9753 55.2953 28.2818 55.0046 28.4945C54.7167 28.2795 54.5093 27.973 54.4159 27.6246C54.3225 27.2761 54.3485 26.9061 54.4899 26.5744L54.6138 26.344L54.385 26.4688C54.1767 26.5693 53.9487 26.6218 53.7177 26.6224C53.5438 26.6328 53.3697 26.6075 53.2059 26.548C53.042 26.4886 52.8918 26.3964 52.7644 26.2768M57.5308 26.0752C57.4451 25.8352 57.1972 25.8352 57.0256 25.8352C56.8458 25.8557 56.6642 25.8185 56.5067 25.7288C56.3492 25.6392 56.2238 25.5016 56.1486 25.3359C56.0341 25.1246 55.9322 24.9066 55.8435 24.6831C56.7288 24.5581 57.5736 24.2296 58.3125 23.723C58.3125 23.8862 58.3602 24.0399 58.3888 24.1935C58.4391 24.5188 58.5716 24.8257 58.7736 25.0846C58.9756 25.3435 59.2403 25.5458 59.5423 25.672C59.8506 25.7698 60.1723 25.8183 60.4956 25.816L60.915 29.253L57.3974 26.6032L57.4641 26.5168C57.5098 26.4617 57.5408 26.3957 57.5542 26.3251C57.5675 26.2546 57.5628 26.1818 57.5404 26.1136M62.3545 19.3932L62.4784 19.6236C62.5945 19.8473 62.6552 20.096 62.6552 20.3484C62.6552 20.6009 62.5945 20.8496 62.4784 21.0733C62.3926 21.2173 62.3068 21.2653 62.2592 21.2653C62.2528 21.2014 62.2528 21.1371 62.2592 21.0733C62.28 20.8303 62.2263 20.5868 62.1052 20.3756C61.9842 20.1644 61.8017 19.9957 61.5823 19.8924C61.3631 19.7772 61.1152 19.6716 60.8197 19.5372C60.8294 19.3581 60.8294 19.1786 60.8197 18.9995C60.8292 18.8173 60.8292 18.6346 60.8197 18.4523C61.1152 18.3275 61.3631 18.2123 61.5823 18.0971C61.8018 17.9966 61.9848 17.8299 62.106 17.62C62.2273 17.4102 62.2808 17.1676 62.2592 16.9258C62.2528 16.862 62.2528 16.7977 62.2592 16.7338C62.2592 16.7338 62.3926 16.7914 62.4784 16.9354C62.5945 17.1574 62.6551 17.4046 62.6551 17.6555C62.6551 17.9064 62.5945 18.1535 62.4784 18.3755L62.3545 18.6155L62.5928 18.4907C62.7704 18.4014 62.9663 18.3554 63.1648 18.3563C63.4155 18.3613 63.6619 18.4225 63.8862 18.5354C64.1104 18.6483 64.3069 18.8102 64.4613 19.0091C64.3046 19.2049 64.1075 19.3638 63.8835 19.4749C63.6596 19.586 63.4143 19.6466 63.1648 19.6524C62.9658 19.658 62.7688 19.6117 62.5928 19.518L62.3545 19.3932ZM63.4698 22.5038V22.5518L65.2334 24.9135L62.8311 24.6255L62.1543 24.5391H61.7539C61.7456 24.2419 61.6942 23.9476 61.6014 23.6654C61.4814 23.3569 61.2807 23.0868 61.0205 22.8839C60.7604 22.6811 60.4505 22.553 60.1238 22.5134C59.9733 22.4769 59.8204 22.4512 59.6662 22.4366C60.1888 21.6936 60.5345 20.8395 60.6767 19.9404C60.8956 20.0296 61.1089 20.1322 61.3154 20.2476C61.4809 20.3222 61.6183 20.4482 61.7075 20.6071C61.7967 20.7661 61.833 20.9496 61.8111 21.1309C61.8111 21.3037 61.8111 21.5533 62.0494 21.6301H62.1829C62.2641 21.6257 62.3433 21.6026 62.4144 21.5627C62.4854 21.5228 62.5464 21.467 62.5928 21.3997L63.4698 22.5038ZM60.2001 18.5003C60.2096 18.6666 60.2096 18.8333 60.2001 18.9995C60.1986 20.3167 59.7092 21.5859 58.8277 22.5589C57.9461 23.5319 56.7359 24.1388 55.4336 24.2607C55.2653 24.2702 55.0967 24.2702 54.9284 24.2607C54.7633 24.2704 54.5978 24.2704 54.4327 24.2607C53.1296 24.1409 51.9181 23.5347 51.0361 22.5612C50.1542 21.5877 49.6656 20.3173 49.6662 18.9995C49.6567 18.8333 49.6567 18.6666 49.6662 18.5003C49.7876 17.1855 50.3928 15.964 51.363 15.0757C52.3332 14.1875 53.5981 13.6968 54.9093 13.7H55.405C56.6317 13.8118 57.7807 14.3535 58.6516 15.2306C59.5226 16.1078 60.0604 17.2649 60.1715 18.5003M58.6271 14.4873C58.6357 14.2738 58.6644 14.0616 58.7129 13.8536C58.7444 13.5804 58.8501 13.3212 59.0182 13.1044C59.1864 12.8876 59.4106 12.7217 59.6662 12.6248C60.1767 12.4728 60.7153 12.4432 61.2391 12.5384H61.3917C61.3881 12.5863 61.3881 12.6344 61.3917 12.6824C61.5015 13.1997 61.4884 13.7359 61.3535 14.2473C61.2575 14.5066 61.0916 14.7339 60.8743 14.9035C60.6571 15.0731 60.3972 15.1783 60.1238 15.2073C59.914 15.2562 59.7002 15.2851 59.4851 15.2937C59.2393 14.9983 58.9682 14.7252 58.6748 14.4777M50.467 15.2937C50.2519 15.2851 50.038 15.2562 49.8283 15.2073C49.5559 15.1752 49.2975 15.0688 49.0808 14.8996C48.8641 14.7304 48.6973 14.5049 48.5985 14.2473C48.4494 13.7327 48.4233 13.1899 48.5223 12.6632C48.5223 12.6056 48.5223 12.5576 48.5223 12.5192H48.6748C49.1941 12.4204 49.7291 12.4433 50.2382 12.5864C50.494 12.6859 50.7179 12.8538 50.8859 13.072C51.0539 13.2903 51.1596 13.5506 51.1915 13.8248C51.2407 14.0327 51.2694 14.2449 51.2773 14.4585C50.9839 14.706 50.7127 14.9791 50.467 15.2745M63.5366 27.5825C62.7281 27.1119 61.8756 26.7228 60.9913 26.4208L60.9246 25.8256H61.2773C61.3565 25.8181 61.4363 25.8181 61.5156 25.8256C61.5659 25.8248 61.6139 25.8041 61.6491 25.768C61.668 25.7496 61.6822 25.727 61.6905 25.7019C61.6988 25.6768 61.701 25.65 61.6967 25.6239C61.6905 25.5441 61.6905 25.4638 61.6967 25.3839C61.7041 25.24 61.7041 25.0958 61.6967 24.9519L62.2687 25.0191C62.5742 25.9336 62.9702 26.8149 63.4508 27.6497M59.5709 25.4319C58.7606 25.1727 58.6176 24.1647 58.5604 23.5118C58.8538 23.2643 59.1249 22.9912 59.3707 22.6958C59.59 22.6958 59.8092 22.6958 60.0094 22.7822C60.2804 22.8149 60.5373 22.9217 60.7524 23.0909C60.9674 23.2601 61.1325 23.4854 61.2296 23.7422C61.3808 24.2562 61.4102 24.7988 61.3154 25.3263C61.3118 25.3743 61.3118 25.4224 61.3154 25.4703H61.1629C60.6399 25.57 60.1009 25.5437 59.59 25.3935M48.6271 25.4799H48.4746C48.4787 25.4288 48.4787 25.3775 48.4746 25.3263C48.3757 24.8028 48.4018 24.2632 48.5509 23.7518C48.6471 23.4944 48.8119 23.2686 49.0271 23.0992C49.2424 22.9299 49.4998 22.8235 49.7711 22.7918C49.9808 22.7429 50.1947 22.714 50.4098 22.7054C50.6557 22.9978 50.9268 23.2677 51.2201 23.5118C51.2099 23.7278 51.1844 23.9428 51.1438 24.1551C51.1113 24.428 51.0053 24.6867 50.8372 24.9033C50.6692 25.1199 50.4456 25.2861 50.1905 25.3839C49.6801 25.5359 49.1414 25.5655 48.6176 25.4703M48.9227 25.8448L48.8464 26.44C47.9605 26.7378 47.1075 27.1271 46.3011 27.6017C46.7799 26.7694 47.1758 25.8914 47.4832 24.9807L48.0647 24.9039C48.0574 25.051 48.0574 25.1984 48.0647 25.3455C48.0722 25.4286 48.0722 25.5121 48.0647 25.5951C48.0694 25.6448 48.0894 25.6918 48.1219 25.7296C48.1441 25.7406 48.1686 25.7463 48.1934 25.7463C48.2182 25.7463 48.2426 25.7406 48.2649 25.7296H48.5032H48.8559M46.9493 24.5007L44.5566 24.7887L45.9579 22.8686L46.3583 22.3309L47.1877 21.2173C47.2355 21.2823 47.2971 21.3359 47.368 21.3741C47.4389 21.4122 47.5173 21.4341 47.5976 21.4381H47.731C47.9598 21.3517 47.9694 21.1117 47.9694 20.9293C47.9474 20.748 47.9838 20.5645 48.073 20.4055C48.1622 20.2466 48.2996 20.1206 48.4651 20.046L49.1038 19.7388C49.2443 20.6384 49.5902 21.4928 50.1143 22.2349L49.6567 22.3118C49.3296 22.3542 49.0199 22.4845 48.76 22.6889C48.5 22.8932 48.2994 23.1642 48.1791 23.4734C48.0936 23.7538 48.0456 24.0443 48.0361 24.3375H47.6166L46.9493 24.5007ZM49.037 18.8747C49.0276 19.057 49.0276 19.2397 49.037 19.422C48.7415 19.5468 48.4937 19.662 48.2744 19.7772C48.0542 19.8786 47.8712 20.0472 47.7515 20.2591C47.6317 20.4711 47.5812 20.7156 47.6071 20.9581C47.6071 21.0253 47.6071 21.1309 47.6071 21.1501C47.6071 21.1501 47.4737 21.1021 47.3879 20.9581C47.2718 20.7343 47.2111 20.4857 47.2111 20.2332C47.2111 19.9808 47.2718 19.7321 47.3879 19.5084L47.5118 19.2684L47.2735 19.3932C47.0959 19.4824 46.9 19.5285 46.7015 19.5276C46.4508 19.5226 46.2044 19.4614 45.9801 19.3485C45.7558 19.2356 45.5594 19.0737 45.405 18.8747C45.5617 18.679 45.7588 18.52 45.9827 18.409C46.2066 18.2979 46.4519 18.2373 46.7015 18.2315C46.9 18.2306 47.0959 18.2766 47.2735 18.3659L47.5118 18.4907L47.3879 18.2507C47.2718 18.027 47.2111 17.7783 47.2111 17.5259C47.2111 17.2734 47.2718 17.0247 47.3879 16.801C47.4737 16.657 47.5595 16.609 47.6071 16.609C47.6071 16.609 47.6071 16.7338 47.6071 16.801C47.5812 17.0435 47.6317 17.288 47.7515 17.4999C47.8712 17.7119 48.0542 17.8805 48.2744 17.9819C48.4937 18.0971 48.7415 18.2123 49.037 18.3371C49.0278 18.5162 49.0278 18.6957 49.037 18.8747ZM45.8912 22.2925C44.9833 22.116 44.0609 22.026 43.1362 22.0237C43.8942 21.5912 44.6092 21.0864 45.2716 20.5164L46.8921 20.9485L45.8912 22.2925ZM40.5146 18.7979L44.833 17.6459L45.3574 17.5019L47.0542 17.2234C46.9961 17.4923 46.9961 17.7706 47.0542 18.0395H46.8349C46.5211 18.0465 46.2129 18.1253 45.9338 18.27C45.6547 18.4147 45.4119 18.6215 45.2239 18.8747L45.119 19.0188L45.2239 19.1724C45.4119 19.4256 45.6547 19.6324 45.9338 19.7771C46.2129 19.9218 46.5211 20.0006 46.8349 20.0076H47.0542C47.016 20.2235 47.016 20.4445 47.0542 20.6604L45.8435 20.334L45.5671 20.2572L40.5146 18.7979ZM43.1362 15.7258C44.0961 15.7244 45.0537 15.6311 45.9961 15.4473L47.0542 16.7434L45.3002 17.2138C44.6772 16.6854 44.007 16.2162 43.2982 15.8122M44.7187 12.932L48.1791 13.3544C48.1636 13.6881 48.2022 14.0221 48.2935 14.3433C48.4143 14.6513 48.6153 14.9208 48.8753 15.1235C49.1353 15.3262 49.4447 15.4547 49.7711 15.4953C49.922 15.5278 50.0748 15.5502 50.2287 15.5625C49.7282 16.3116 49.4023 17.1649 49.2754 18.0587L48.6367 17.7515C48.4712 17.6769 48.3338 17.5509 48.2446 17.392C48.1553 17.233 48.119 17.0495 48.141 16.8682C48.141 16.6858 48.141 16.4458 47.9026 16.3594H47.7692C47.6361 16.3618 47.5093 16.417 47.4165 16.513L46.6348 15.4761L46.4441 15.2169L44.7187 12.932ZM47.5785 12.8552C47.2797 11.9996 46.9032 11.1737 46.4536 10.3878C47.2497 10.8488 48.0896 11.2284 48.9608 11.5207L49.037 12.1255H48.6462C48.5669 12.133 48.4871 12.133 48.4079 12.1255C48.3576 12.1263 48.3096 12.147 48.2744 12.1831C48.2598 12.23 48.2598 12.2803 48.2744 12.3271C48.2818 12.407 48.2818 12.4873 48.2744 12.5672C48.2744 12.644 48.2744 12.7304 48.2744 12.8264L47.5785 12.8552ZM61.0485 11.5591C61.9392 11.254 62.7981 10.8617 63.6128 10.3878C63.1633 11.1737 62.7867 11.9996 62.488 12.8552L61.8588 12.932C61.8588 12.836 61.8588 12.7496 61.8588 12.6632C61.8507 12.5802 61.8507 12.4966 61.8588 12.4135C61.8581 12.3629 61.8375 12.3146 61.8016 12.2791C61.755 12.2644 61.7051 12.2644 61.6586 12.2791H61.4203H61.039L61.0485 11.5591ZM62.9551 13.22L65.3097 12.932L63.813 14.9385L63.4031 15.4857L62.6309 16.5226C62.5857 16.4733 62.5313 16.4335 62.4708 16.4055C62.4102 16.3775 62.3448 16.3618 62.2782 16.3594H62.1448C61.916 16.4458 61.9064 16.6954 61.9064 16.8682C61.9284 17.0495 61.8921 17.233 61.8029 17.392C61.7136 17.5509 61.5762 17.6769 61.4107 17.7515C61.2043 17.8669 60.991 17.9695 60.772 18.0587C60.6449 17.1709 60.3189 16.3239 59.8187 15.5817L60.2859 15.5049C60.5982 15.4501 60.8909 15.3141 61.135 15.1103C61.3791 14.9066 61.5662 14.6422 61.6777 14.3433C61.7888 14.0094 61.8404 13.6584 61.8302 13.3064L62.2782 13.2584L62.9551 13.22ZM63.9083 15.5721C64.8507 15.7559 65.8083 15.8492 66.7682 15.8506C66.0442 16.2431 65.358 16.7027 64.7186 17.2234L62.9646 16.753L63.9083 15.5721ZM65.0618 17.7611L69.3802 18.9227L63.0218 20.6316C63.0599 20.4125 63.0599 20.1884 63.0218 19.9692H63.241C63.5549 19.9622 63.8631 19.8834 64.1422 19.7387C64.4213 19.594 64.6641 19.3872 64.8521 19.134L64.957 18.9899L64.8521 18.8459C64.6661 18.5899 64.424 18.3805 64.1446 18.234C63.8652 18.0874 63.556 18.0077 63.241 18.0011H63.0218C63.0789 17.7289 63.0789 17.4476 63.0218 17.1754L64.3945 17.5499L65.0618 17.7611ZM64.6233 20.6412C65.284 21.2134 65.9993 21.7183 66.7587 22.1485C65.8371 22.1505 64.9179 22.2405 64.0132 22.4174L63.0027 21.0733L64.6233 20.6412ZM58.9799 28.3217L61.5251 30.2418L61.1533 27.112C62.6214 27.6497 64.3278 28.6673 64.8998 29.7042C65.0576 30.1243 65.1156 30.5758 65.0693 31.0226C65.0229 31.4693 64.8735 31.8989 64.6329 32.2771C64.2749 32.8783 63.9961 33.5237 63.8035 34.1973C63.1131 34.0129 62.4014 33.9225 61.6872 33.9284C61.2416 33.9488 60.7975 33.8639 60.3903 33.6805C59.9831 33.4971 59.6241 33.2204 59.3421 32.8724C58.7225 31.8547 58.7034 29.829 58.9799 28.2737M58.4555 27.8705C58.2618 28.8179 58.1691 29.7834 58.1791 30.7507C57.7585 30.0066 57.2668 29.3056 56.711 28.6577L57.1686 26.9296L58.4555 27.8705ZM51.7825 33.17C51.9571 31.745 52.5553 30.4064 53.4984 29.3298L54.9856 34.9557L56.4727 29.3298C57.4159 30.4064 58.014 31.745 58.1886 33.17C58.1227 33.615 57.9515 34.0374 57.6893 34.4017C57.4272 34.766 57.0818 35.0614 56.6824 35.2629C56.0638 35.6158 55.4934 36.0483 54.9856 36.5494C54.4777 36.0483 53.9073 35.6158 53.2887 35.2629C52.8893 35.0614 52.544 34.766 52.2818 34.4017C52.0196 34.0374 51.8484 33.615 51.7825 33.17ZM51.5633 27.8801L52.8502 26.92L53.3078 28.6385C52.7519 29.2864 52.2603 29.9874 51.8397 30.7315C51.8507 29.7642 51.7581 28.7985 51.5633 27.8513M45.1476 29.7042C45.7196 28.6673 47.426 27.6497 48.9036 27.112L48.5318 30.2418L51.0676 28.3217C51.344 29.8866 51.3249 31.9027 50.7053 32.9204C50.4233 33.2684 50.0643 33.5451 49.6571 33.7285C49.2499 33.9119 48.8058 33.9968 48.3602 33.9764C47.646 33.9705 46.9343 34.0609 46.2439 34.2453C46.0513 33.5717 45.7725 32.9263 45.4145 32.3252C45.1662 31.9412 45.0125 31.5031 44.9661 31.0472C44.9196 30.5914 44.9819 30.1309 45.1476 29.7042ZM41.1343 23.3294C42.0876 22.7054 44.1085 22.6862 45.6433 22.955L43.7368 25.4607L46.9207 25.0671C46.3869 26.5648 45.3574 28.3217 44.2992 28.9073C43.882 29.0663 43.4337 29.1247 42.9901 29.0781C42.5465 29.0314 42.1199 28.8809 41.7444 28.6385C41.1291 28.2767 40.4687 27.999 39.7806 27.8129C39.9631 27.1208 40.0528 26.4072 40.0475 25.6912C40.0288 25.244 40.1139 24.7986 40.2959 24.3903C40.4779 23.982 40.7519 23.6221 41.0962 23.339M40.8006 15.793C42.1815 15.9639 43.4815 16.5417 44.5375 17.4539L38.9989 18.9323L44.7187 20.4588C43.6299 21.4253 42.2784 22.0406 40.8388 22.2253C40.3982 22.1555 39.9799 21.9828 39.6174 21.721C39.2549 21.4593 38.9582 21.1158 38.7511 20.7181C38.4031 20.0934 37.9734 19.5187 37.4737 19.0091C37.9674 18.4729 38.3874 17.8723 38.7225 17.2234C38.9285 16.8239 39.2247 16.4785 39.5873 16.215C39.9498 15.9516 40.3687 15.7775 40.8102 15.7065M44.3087 9.03415C45.3288 9.58138 46.3202 11.2423 46.8731 12.7016L43.7463 12.3175L45.7196 14.9577C44.1562 15.2361 42.1352 15.2265 41.1057 14.6025C40.7601 14.3184 40.4853 13.9569 40.3033 13.5469C40.1212 13.1368 40.0369 12.6895 40.0571 12.2407C40.0624 11.5278 39.9726 10.8174 39.7901 10.1286C40.477 9.93455 41.1368 9.65391 41.7539 9.29336C42.1281 9.04751 42.5554 8.89567 43 8.85056C43.4445 8.80546 43.8933 8.86842 44.3087 9.03415ZM51.058 9.47577L48.5032 7.55566L48.8941 10.8295C47.4165 10.2918 45.691 9.27416 45.0809 8.2277C44.9201 7.80977 44.8605 7.3593 44.9069 6.91355C44.9533 6.4678 45.1044 6.03958 45.3478 5.66434C45.7082 5.04407 45.987 4.37926 46.1772 3.68663C46.8675 3.87099 47.5793 3.9614 48.2935 3.95544C48.7391 3.9351 49.1832 4.02 49.5904 4.20337C49.9976 4.38674 50.3565 4.66349 50.6386 5.0115C51.2391 5.97156 51.2773 7.89168 51.0199 9.48538M51.5537 9.879C51.7251 8.98702 51.8081 8.08012 51.8016 7.17163C52.2192 7.89863 52.7009 8.58626 53.241 9.22616L52.8121 10.8391L51.5537 9.879ZM58.1886 4.74269C58.0277 6.16415 57.4427 7.50311 56.5108 8.58292L54.9856 2.82257L53.4698 8.58292C52.5523 7.49701 51.978 6.1597 51.8207 4.74269C51.8924 4.29977 52.066 3.87988 52.3275 3.5165C52.589 3.15313 52.9312 2.85632 53.3268 2.64976C53.9455 2.29685 54.5159 1.8644 55.0237 1.36329C55.5315 1.8644 56.1019 2.29685 56.7206 2.64976C57.109 2.86085 57.4437 3.15965 57.6984 3.52274C57.9531 3.88584 58.1209 4.30339 58.1886 4.74269ZM58.3793 9.9174L57.1209 10.8775L56.7015 9.26456C57.2355 8.62547 57.7139 7.94131 58.1314 7.21964C58.1252 8.1313 58.2082 9.04135 58.3793 9.9366M64.8521 8.2757C64.2801 9.32216 62.5642 10.3398 61.039 10.8775L61.4393 7.59406L58.875 9.51418C58.6176 7.96848 58.6557 6.03876 59.2563 5.0403C59.5383 4.69229 59.8973 4.41554 60.3045 4.23217C60.7117 4.0488 61.1558 3.9639 61.6014 3.98424C62.3156 3.9902 63.0273 3.89979 63.7177 3.71543C63.9079 4.40806 64.1867 5.07287 64.5471 5.69314C64.7904 6.06838 64.9416 6.4966 64.988 6.94235C65.0344 7.3881 64.9748 7.83858 64.814 8.2565M68.8273 14.6409C67.8073 15.2649 65.7768 15.2745 64.2229 14.9961L66.1867 12.3559L63.0599 12.74C63.6128 11.2807 64.6042 9.61978 65.6243 9.07255C66.0397 8.90682 66.4885 8.84386 66.933 8.88897C67.3776 8.93407 67.8049 9.08592 68.1791 9.33176C68.7962 9.69231 69.456 9.97295 70.1429 10.167C69.9604 10.8558 69.8706 11.5662 69.8759 12.2791C69.9008 12.7285 69.8186 13.1773 69.6361 13.5881C69.4537 13.999 69.1764 14.3599 68.8273 14.6409ZM71.2105 20.67C71.0034 21.0678 70.7067 21.4113 70.3442 21.673C69.9817 21.9348 69.5634 22.1075 69.1228 22.1773C67.6832 21.9926 66.3317 21.3773 65.243 20.4108L70.9627 18.8843L65.4145 17.3963C66.472 16.488 67.7718 15.9137 69.1514 15.745C69.591 15.8104 70.0094 15.978 70.3735 16.2347C70.7375 16.4913 71.0372 16.8298 71.2487 17.2234C71.599 17.8436 72.0284 18.4149 72.5261 18.9227C72.0263 19.4323 71.5967 20.007 71.2487 20.6316M58.8559 19.4508L58.6462 19.1052C58.5207 19.1636 58.3841 19.1939 58.2458 19.1939C58.1075 19.1939 57.9709 19.1636 57.8454 19.1052V16.945C57.8312 16.6734 57.7361 16.4125 57.5725 16.1961C57.4089 15.9797 57.1844 15.818 56.9282 15.732C56.672 15.646 56.3961 15.6397 56.1363 15.7139C55.8765 15.7882 55.6449 15.9395 55.4717 16.1482C55.3628 16.013 55.2284 15.9009 55.0761 15.8185C54.9239 15.7361 54.7569 15.6849 54.5849 15.6679C54.4129 15.6509 54.2392 15.6685 54.074 15.7197C53.9088 15.7708 53.7552 15.8544 53.6224 15.9658C53.5734 16.0022 53.5287 16.0441 53.4889 16.0906V15.7642H52.2115V19.1436C52.0847 19.2035 51.9464 19.2346 51.8064 19.2346C51.6663 19.2346 51.528 19.2035 51.4012 19.1436L51.201 19.4892C51.3767 19.5902 51.5736 19.648 51.7757 19.658C51.9778 19.668 52.1793 19.6299 52.364 19.5468C52.9362 19.3165 53.5745 19.3165 54.1467 19.5468C54.4246 19.6619 54.7233 19.7175 55.0237 19.71C55.3243 19.7192 55.6233 19.6636 55.9007 19.5468C56.4729 19.3165 57.1112 19.3165 57.6834 19.5468C57.8697 19.63 58.0728 19.6681 58.2764 19.6581C58.48 19.6481 58.6785 19.5903 58.8559 19.4892M54.4041 19.2012C54.0975 19.0834 53.7771 19.0059 53.4508 18.9707V17.0506C53.4687 16.9463 53.5224 16.8517 53.6025 16.7833C53.6827 16.7148 53.7842 16.6769 53.8893 16.6762C53.9494 16.6749 54.0091 16.6856 54.0651 16.7076C54.1211 16.7296 54.1723 16.7625 54.2157 16.8044C54.259 16.8463 54.2938 16.8964 54.3179 16.9518C54.3421 17.0072 54.3552 17.0669 54.3564 17.1274L54.4041 19.2012ZM56.5585 18.9611C56.2319 19.0055 55.9119 19.0893 55.6052 19.2108V17.1562C55.6052 17.0289 55.6554 16.9068 55.7448 16.8168C55.8342 16.7268 55.9554 16.6762 56.0819 16.6762C56.2083 16.6762 56.3295 16.7268 56.4189 16.8168C56.5083 16.9068 56.5585 17.0289 56.5585 17.1562V18.9611ZM53.9465 21.8413C53.941 21.8867 53.9241 21.9299 53.8974 21.9668C53.8707 22.0038 53.8351 22.0333 53.794 22.0525C53.6534 22.1102 53.496 22.1102 53.3554 22.0525C53.3143 22.0345 53.279 22.0051 53.2537 21.9677C53.2284 21.9303 53.2141 21.8865 53.2125 21.8413H52.364C52.365 22.0253 52.4291 22.2032 52.5456 22.345C52.662 22.4867 52.8235 22.5835 53.0027 22.619C53.4928 22.7714 54.0224 22.7266 54.4803 22.4942C54.5713 22.4407 54.6507 22.3696 54.714 22.2848C54.7773 22.2001 54.8232 22.1035 54.849 22.0006C54.8747 21.8978 54.8798 21.7908 54.864 21.686C54.8482 21.5812 54.8117 21.4806 54.7568 21.3901C54.7001 21.3107 54.6327 21.2396 54.5566 21.1789C54.4776 21.1183 54.3866 21.0757 54.2897 21.0541C54.0561 20.9805 53.817 20.9259 53.5747 20.8909C53.5133 20.8826 53.4547 20.86 53.4034 20.8251C53.3521 20.7901 53.3096 20.7436 53.2792 20.6892C53.2617 20.6304 53.2655 20.5672 53.2899 20.511C53.3144 20.4547 53.3579 20.409 53.4126 20.382C53.5174 20.3439 53.632 20.3439 53.7368 20.382C53.799 20.3905 53.8571 20.4181 53.9031 20.4611C53.9492 20.504 53.981 20.5602 53.9941 20.622H54.8426C54.8428 20.4653 54.7942 20.3124 54.7035 20.1849C54.6129 20.0574 54.4848 19.9619 54.3373 19.9116C54.0921 19.8046 53.8277 19.7494 53.5604 19.7494C53.2931 19.7494 53.0287 19.8046 52.7835 19.9116C52.5902 19.9996 52.4395 20.1612 52.3644 20.361C52.2894 20.5608 52.2961 20.7825 52.3831 20.9773C52.4098 21.0475 52.4485 21.1125 52.4975 21.1693C52.6977 21.3424 52.9421 21.4555 53.2029 21.4957H53.3459L53.6128 21.5533C53.6825 21.5704 53.7497 21.5962 53.813 21.6301C53.8504 21.6495 53.8823 21.6782 53.9057 21.7135C53.929 21.7488 53.9431 21.7895 53.9465 21.8317M55.2048 20.9485C55.1597 21.2928 55.2023 21.643 55.3288 21.9661C55.3961 22.1176 55.4933 22.2536 55.6146 22.3658C55.7359 22.4781 55.8787 22.5642 56.0342 22.619C56.1878 22.6791 56.3525 22.7051 56.5171 22.6951C56.6816 22.6852 56.8421 22.6396 56.9875 22.5614C57.1882 22.4654 57.3605 22.3185 57.4876 22.1349C57.6147 21.9514 57.692 21.7377 57.712 21.5149H56.9207C56.8859 21.6633 56.7976 21.7933 56.6729 21.8797C56.425 22.0525 56.1295 21.8797 56.0151 21.5149C55.9657 21.3473 55.9627 21.1693 56.0064 21.0001C56.0501 20.8309 56.1388 20.677 56.263 20.5548C56.5204 20.3916 56.8063 20.5548 56.9207 20.9293H57.7215C57.72 20.7369 57.6702 20.5481 57.5769 20.3802C57.4836 20.2124 57.3497 20.071 57.1877 19.9692C56.9532 19.8072 56.6702 19.7321 56.3869 19.7566C56.1036 19.7811 55.8374 19.9037 55.6338 20.1036C55.5064 20.2157 55.4027 20.3526 55.329 20.506C55.2553 20.6594 55.213 20.8262 55.2048 20.9965" fill="white"/>
<path d="M12.5929 67.7127C11.6397 67.8952 10.572 68.0584 9.50429 68.1928C8.43661 68.3272 7.31173 68.4328 6.12965 68.5C4.94757 68.5672 3.98475 68.6248 2.61201 68.644V57.2097C2.73849 56.9913 2.88533 56.7856 3.05052 56.5953C3.24174 56.3691 3.48245 56.1907 3.75373 56.0741C4.02502 55.9575 4.31947 55.9058 4.61392 55.9232C5.08596 55.92 5.55559 55.9913 6.00572 56.1344C6.45377 56.2785 6.90181 56.4417 7.35939 56.6337C7.81697 56.8257 8.31268 56.9793 8.72259 57.1233C9.16947 57.2664 9.63595 57.3377 10.1049 57.3345C10.7697 57.333 11.4241 57.1682 12.0114 56.8545C12.7984 56.4035 13.486 55.7959 14.0324 55.0688L13.7369 54.7328C13.3827 55.0584 12.9808 55.3272 12.5453 55.5296C12.199 55.6802 11.8261 55.7585 11.449 55.76C11.0317 55.759 10.6181 55.6809 10.2288 55.5296C9.81888 55.376 9.40896 55.1936 8.98951 55.0016C8.5473 54.7952 8.09188 54.6188 7.62631 54.4736C7.12016 54.3157 6.59275 54.238 6.06292 54.2431C5.3907 54.2065 4.72084 54.3498 4.12142 54.6584C3.52199 54.967 3.01437 55.4299 2.65014 56V47.1387C3.89895 47.1387 4.74738 47.1867 5.84366 47.2347C6.93994 47.2827 7.9981 47.3403 9.03718 47.4363C10.0763 47.5323 11.0677 47.6475 12.04 47.8107C13.0124 47.974 13.6797 48.166 14.6806 48.4156V45.9194H0V69.9209H15.2526V67.0503C14.2993 67.2999 13.5844 67.5207 12.5929 67.7127Z" fill="white"/>
</svg>
